<svg width="176" height="178" viewBox="0 0 176 178" fill="none" xmlns="http://www.w3.org/2000/svg">
<path d="M66.5273 4.16589C66.7269 3.86573 69.4215 2.96527 72.4155 2.16486C75.4095 1.36445 82.0961 0.664093 87.0861 0.664093C93.6729 0.564042 99.3615 1.2644 106.846 3.06532C112.635 4.46604 120.12 6.86727 123.513 8.36804C127.006 9.86881 132.495 12.9704 135.788 15.1715C139.082 17.2726 144.571 21.7749 148.164 25.0766C151.657 28.3783 156.447 33.7811 158.742 37.0827C161.138 40.3844 164.93 46.8878 167.126 51.5902C169.421 56.2926 172.215 64.3967 173.413 69.5994C175.209 77.7036 175.409 81.0053 174.91 92.6112C174.611 100.215 173.613 108.719 172.714 112.121C171.816 115.423 169.122 122.126 166.826 127.129C164.431 132.031 159.74 139.635 156.347 143.938C153.054 148.14 146.766 154.443 142.575 157.745C138.283 161.146 130.699 165.849 125.808 168.25C120.818 170.551 113.932 173.253 110.339 174.153C106.747 175.053 102.954 175.654 101.856 175.454C100.459 175.254 101.457 174.453 105.349 172.552C108.343 171.151 113.533 168.25 116.826 165.949C120.12 163.748 125.808 158.945 129.501 155.343C133.293 151.641 138.583 145.138 141.277 140.836C144.072 136.634 147.665 129.63 149.261 125.428C150.958 121.126 152.954 114.422 153.752 110.62C154.551 106.818 155.249 99.1145 155.249 93.6117C155.249 88.1089 154.651 80.3049 153.852 76.4029C153.054 72.4008 151.058 65.4973 149.461 61.0951C147.764 56.6928 144.172 49.6892 141.477 45.5871C138.882 41.485 135.09 36.2823 133.194 34.1813C131.297 31.9801 126.407 27.5779 122.315 24.2762C118.224 20.9745 111.437 16.6723 107.345 14.5712C103.254 12.4701 96.9663 9.86881 93.3735 8.76825C89.7807 7.66768 84.1919 6.46707 80.8985 6.06686C77.6051 5.66666 74.2119 5.1664 73.4135 4.9663C72.6151 4.86625 70.6191 4.66614 69.0223 4.66614C67.4255 4.56609 66.3277 4.36599 66.5273 4.16589Z" fill="#830000"/>
<path d="M48.4637 10.0688C51.4577 8.56806 56.8469 6.26688 60.4397 4.96622C64.0325 3.7656 67.6253 2.66504 68.4237 2.66504C69.3219 2.66504 69.2221 3.06524 67.9247 3.5655C66.2281 4.26586 66.3279 4.46596 68.9227 4.56601C70.6193 4.66606 72.6153 4.86617 73.4137 4.96622C74.2121 5.16632 77.6053 5.66658 80.8987 6.06678C84.1921 6.46699 89.7809 7.6676 93.3737 8.76817C96.9665 9.86873 103.254 12.4701 107.346 14.5711C111.437 16.6722 118.224 20.9744 122.316 24.2761C126.407 27.5778 131.298 31.9801 133.194 34.1812C135.09 36.2823 138.882 41.4849 141.477 45.587C144.172 49.6891 147.765 56.6927 149.461 61.095C151.058 65.4972 153.054 72.4008 153.852 76.3028C154.651 80.3048 155.25 88.1088 155.25 93.6116C155.25 99.1145 154.551 106.818 153.753 110.62C152.954 114.422 150.958 121.126 149.262 125.428C147.665 129.63 144.072 136.634 141.278 140.936C138.583 145.138 133.294 151.641 129.601 155.343C125.809 158.945 120.12 163.748 116.827 165.949C113.533 168.25 108.444 171.051 105.649 172.352C102.755 173.653 100.559 174.953 100.759 175.454C101.058 175.854 99.5613 176.454 97.5653 176.854C95.5693 177.255 91.1781 177.655 87.8847 177.655C84.5913 177.655 78.1043 176.954 73.4137 176.054C68.7231 175.153 61.3379 173.152 56.9467 171.552C52.5555 169.951 45.8689 166.749 41.9768 164.448C38.1844 162.147 31.6974 157.044 27.6056 153.142C23.6136 149.34 18.3242 143.437 15.929 140.135C13.6336 136.834 10.1406 130.731 8.14458 126.629C6.24838 122.526 3.65358 115.523 2.35618 111.121C0.459982 104.317 0.0607818 100.915 0.160582 88.6091C0.260382 75.9026 0.559781 73.0011 2.85518 65.2971C4.35218 60.4947 7.24638 53.0909 9.44198 48.8887C11.5378 44.5865 16.0288 37.683 19.3222 33.5809C22.6156 29.4788 27.3062 24.4762 29.7014 22.4752C31.9968 20.5742 35.9888 17.5727 38.4838 15.8718C40.9788 14.1709 45.4697 11.5696 48.4637 10.0688Z" fill="#AF0000"/>
<path d="M59.7411 55.8926C60.9387 52.9911 62.5355 50.1897 63.4337 49.5894C64.2321 49.0891 66.0285 48.6889 67.4257 48.6889C68.8229 48.5889 71.9167 49.5894 74.4117 50.6899C76.9067 51.8906 81.7969 52.9911 85.3897 53.2913C90.7789 53.6915 93.0742 53.2913 98.8626 51.1902C102.655 49.6894 106.946 48.5889 108.344 48.5889C109.741 48.5889 111.837 49.3893 113.134 50.3898C114.93 51.6905 116.228 54.9921 118.823 65.5976C120.719 73.0014 122.316 80.105 122.316 81.4057C122.316 83.4067 121.617 83.7069 115.13 84.8074C111.038 85.5078 99.162 86.1081 88.3837 86.1081C76.6073 86.1081 66.3279 85.6078 62.4357 84.8074C58.8429 84.1071 55.1503 83.0065 54.1523 82.3061C52.3559 81.1055 52.4557 80.7053 54.9507 71.1004C56.4477 65.5976 58.6433 58.694 59.7411 55.8926Z" fill="#FFFCF9"/>
<path d="M38.4837 80.6053C39.5815 79.5047 41.9767 77.9039 43.6733 77.1035H43.7731C45.4697 76.3031 47.4657 75.7028 48.0645 75.6027C48.7631 75.6027 49.2621 76.8033 49.1623 78.4041C49.1623 79.9049 49.2621 81.9059 49.2621 82.9064C49.3619 83.8069 50.3599 85.1076 51.4577 85.6078C52.5555 86.1081 56.9467 87.3087 61.1383 88.1091C66.5275 89.1096 75.0105 89.6099 88.8827 89.5098C99.8606 89.5098 112.036 89.0096 115.928 88.3092C119.821 87.6089 123.713 86.4082 124.711 85.6078C126.108 84.5073 126.407 83.0065 126.208 79.8049C125.809 75.7028 125.908 75.6027 128.304 76.103C129.701 76.5032 132.096 77.5037 133.693 78.4041C135.29 79.3046 137.086 80.9054 137.685 81.9059C138.483 83.1066 138.483 84.1071 137.685 85.4077C137.086 86.3082 135.29 87.909 133.693 88.8095C132.096 89.81 127.405 91.4108 123.314 92.5114C119.222 93.5119 110.24 95.0127 103.354 95.613C96.0683 96.3133 86.2879 96.6135 79.9007 96.2133C73.9127 95.9131 65.1303 94.9126 60.4397 94.2122C55.7491 93.4118 49.6613 92.0111 46.9667 91.1107C44.2721 90.1101 41.0785 88.8095 39.9807 88.1091C38.8829 87.4088 37.6853 85.8079 37.1863 84.7074C36.6873 83.2066 37.0865 82.006 38.4837 80.6053Z" fill="#FFFCF9"/>
<path d="M48.7631 109.62C48.3639 107.719 48.6633 105.118 49.2621 103.817C50.4597 101.516 50.7591 101.516 58.6433 102.316C63.1343 102.717 76.0085 103.117 87.2859 103.117C98.5632 103.117 111.437 102.817 116.028 102.416C123.813 101.616 124.312 101.716 125.709 103.917C127.006 105.818 127.106 106.819 126.008 111.021C125.21 114.022 123.214 117.624 121.118 120.025C119.222 122.327 115.429 125.128 112.934 126.429C110.34 127.629 105.649 128.93 102.555 129.23C97.166 129.83 96.4674 129.63 92.7749 126.729C90.5793 124.928 88.0843 123.627 87.2859 123.627C86.4875 123.627 84.1921 125.128 82.2959 126.829C79.0025 129.73 78.5035 129.931 72.8149 129.33C69.1223 128.93 64.6313 127.629 61.3379 125.928C57.3459 123.827 54.9507 121.726 52.5555 118.124C50.7591 115.323 49.0625 111.521 48.7631 109.62Z" fill="#FFFCF9"/>
<path d="M59.8409 114.423C59.3419 112.722 59.8409 111.621 61.4377 110.421C63.0345 109.12 65.4297 108.62 69.5215 108.62C72.8149 108.62 76.6073 109.22 78.1043 110.02C79.7011 110.721 81.2979 112.221 81.6971 113.222C82.1961 114.523 81.8967 115.923 80.5993 117.624C79.6013 119.025 77.6053 120.726 76.3079 121.426C74.9107 122.127 72.5155 122.427 70.4197 122.026C68.5235 121.726 65.4297 120.326 63.7331 119.025C61.9367 117.724 60.1403 115.623 59.8409 114.423Z" fill="#AF0000"/>
<path d="M94.9704 112.822C95.5692 111.921 97.166 110.521 98.4634 109.92C99.7608 109.22 103.653 108.62 107.046 108.62C111.338 108.62 113.833 109.12 114.831 110.12C115.629 110.921 116.328 112.522 116.328 113.622C116.328 114.723 115.23 116.724 113.833 118.124C112.435 119.525 109.641 121.126 107.545 121.726C104.551 122.627 103.154 122.527 100.06 121.226C98.0642 120.326 95.7688 118.425 95.0702 117.024C94.172 115.123 94.172 114.022 94.9704 112.822Z" fill="#AF0000"/>
<path d="M64.2318 114.222C64.0323 113.422 64.8306 112.522 65.9284 112.321C67.0262 112.021 69.7208 112.021 71.9164 112.321C74.112 112.622 76.5072 113.322 77.3056 114.022C78.4034 114.923 78.2038 115.423 76.3076 116.924C75.0102 117.924 73.114 118.725 72.2158 118.625C71.2178 118.625 69.122 117.924 67.4254 117.124C65.7288 116.323 64.3316 115.023 64.2318 114.222Z" fill="#FFFCF9"/>
<path d="M98.1638 114.623C98.064 114.122 99.4612 113.222 101.357 112.722C103.254 112.121 106.447 111.921 108.343 112.221C110.24 112.421 112.036 112.822 112.335 113.122C112.635 113.422 111.936 114.523 110.838 115.623C109.741 116.724 107.545 117.924 105.848 118.224C103.952 118.525 102.056 118.124 100.659 117.224C99.3614 116.323 98.2636 115.223 98.1638 114.623Z" fill="#FFFCF9"/>
</svg>
