<svg width="178" height="178" viewBox="0 0 178 178" fill="none" xmlns="http://www.w3.org/2000/svg">
<path d="M68.8757 3.50474C71.0873 2.70221 75.8123 1.59872 79.4313 1.19745C83.0504 0.695869 88.8811 0.495235 92.5002 0.796186C96.1193 1.09714 102.453 1.99999 106.574 2.80252C110.696 3.60506 117.532 5.61139 121.654 7.21646C125.776 8.72122 132.813 12.4329 137.236 15.3421C141.659 18.2513 147.993 23.3675 151.31 26.6779C154.628 29.9884 159.755 36.3083 162.67 40.7223C165.585 45.1362 169.305 52.359 171.014 56.773C172.723 61.1869 174.834 68.0085 175.638 71.8205C176.443 75.6325 177.146 83.5576 177.146 89.376C177.046 95.1943 176.443 103.119 175.538 106.931C174.734 110.743 172.924 117.164 171.416 120.976C170.009 124.788 166.892 131.208 164.58 135.02C162.368 138.832 157.241 145.353 153.321 149.466C149.501 153.478 143.569 158.795 140.252 161.102C136.934 163.51 131.506 166.72 128.188 168.426C124.871 170.031 119.945 172.137 117.13 173.141C114.315 174.043 109.289 175.347 105.971 175.949C102.553 176.652 99.9394 176.953 100.04 176.652C100.14 176.351 103.357 174.645 107.178 172.84C110.998 170.934 116.828 167.523 120.146 165.115C123.463 162.708 128.49 158.394 131.305 155.384C134.22 152.475 138.241 147.76 140.252 145.052C142.363 142.243 145.781 136.525 147.892 132.211C150.104 127.998 152.718 121.176 153.924 117.264C155.231 112.549 156.236 105.627 156.538 97.9029C156.94 90.4794 156.638 83.1563 155.935 78.8427C155.231 75.0306 153.622 68.6104 152.316 64.7983C151.009 60.886 148.696 55.5692 147.188 52.7603C145.781 50.0518 143.167 45.7381 141.458 43.2302C139.749 40.7223 135.426 35.6061 131.807 31.7941C128.188 28.0824 122.659 23.2672 119.643 21.1605C116.627 19.1542 111.4 16.0443 108.082 14.4393C104.765 12.7339 99.1352 10.4266 95.5161 9.32312C91.897 8.11931 86.0663 6.71488 82.4472 6.11298C78.8281 5.61139 73.3995 5.10981 64.8545 5.00949L68.8757 3.50474Z" fill="#008301"/>
<path d="M45.7539 12.0318C49.0714 10.2261 54.9021 7.51751 58.8228 6.01275C62.6429 4.508 66.5636 3.3042 67.3678 3.3042C68.2726 3.3042 68.0715 3.60515 66.8652 4.10673C65.3572 4.70864 66.3625 5.00959 70.3837 5.00959C73.3996 5.1099 78.8282 5.61149 82.4473 6.11307C86.0664 6.71497 91.8971 8.11941 95.5162 9.32321C99.1353 10.4267 104.765 12.734 108.082 14.4394C111.4 16.0444 116.627 19.1543 119.643 21.1606C122.659 23.2673 128.188 28.0825 131.807 31.7942C135.427 35.6062 139.749 40.7224 141.458 43.2303C143.167 45.7382 145.781 50.0518 147.189 52.7604C148.697 55.5693 151.009 60.9864 152.316 64.7984C153.622 68.6105 155.231 75.0307 155.935 78.8428C156.638 83.1564 156.94 90.4795 156.538 97.903C156.236 105.627 155.231 112.549 153.924 117.264C152.718 121.176 150.104 127.998 147.892 132.211C145.781 136.525 142.363 142.243 140.252 145.052C138.241 147.76 134.22 152.475 131.305 155.385C128.49 158.394 123.464 162.708 120.146 165.115C116.829 167.523 110.998 170.934 107.178 172.84C103.358 174.645 100.141 176.451 99.9395 176.852C99.7385 177.354 94.4104 177.655 88.1775 177.655C79.3309 177.655 74.9076 177.153 67.5689 175.147C62.5424 173.743 55.5053 171.335 52.0873 169.83C48.5687 168.225 42.8385 165.015 39.2195 162.607C35.6004 160.2 29.6691 155.284 26.0501 151.673C22.431 148.061 17.2034 141.641 14.5896 137.528C11.8753 133.415 8.55785 127.296 7.25096 123.985C5.84354 120.675 3.93347 114.756 2.82765 110.944C1.82235 107.132 0.716517 99.4077 0.314398 93.8903C-0.087722 86.8681 0.213868 81.1501 1.42023 74.5292C2.325 69.5133 4.33559 61.7889 6.0446 57.5756C7.65308 53.262 11.2722 46.1395 14.1875 41.7256C17.1029 37.3116 21.5262 31.4932 24.0395 28.7847C26.5527 26.0761 31.1771 21.9631 34.193 19.6558C37.2089 17.3486 42.4364 13.9378 45.7539 12.0318Z" fill="#00AF01"/>
<path d="M67.9711 57.074C68.7754 55.4689 70.8865 53.5629 72.696 52.7604C74.5056 51.9579 77.1194 51.5566 78.9289 51.8575C80.6379 52.2588 83.1511 53.1617 84.7596 53.8639C86.2676 54.6664 88.0771 55.2683 88.7808 55.2683C89.384 55.2683 92.0983 54.3655 94.8126 53.262C97.8285 51.9579 100.543 51.4563 102.352 51.8575C103.86 52.2588 106.273 53.6632 107.882 55.168C109.792 56.9737 110.797 59.1807 111.199 62.2905C111.501 64.7984 112.003 67.6073 112.204 68.5101C112.606 70.2155 110.998 70.3158 64.8547 70.3158L65.6589 65.0994C66.1616 62.1902 67.1669 58.5788 67.9711 57.074Z" fill="white"/>
<path d="M63.3468 82.0529C63.3468 80.8491 63.6483 78.8428 63.9499 77.639L64.5531 75.3317H113.612V78.3412C113.612 80.0466 113.813 82.0529 114.114 82.8554C114.516 84.1596 111.3 84.3602 63.3468 84.3602V82.0529Z" fill="white"/>
<path d="M51.2832 93.8903C48.0662 90.8808 47.8652 90.4795 48.971 88.0719C49.8757 86.2662 50.9816 85.3634 52.7911 85.3634C54.098 85.3634 56.5107 86.3665 58.0187 87.47C60.6324 89.376 62.2409 89.4764 88.4792 89.4764C114.315 89.376 116.326 89.2757 119.342 87.3697C121.151 86.2662 123.464 85.3634 124.368 85.3634C125.374 85.3634 126.781 85.9653 127.384 86.6675C128.088 87.3697 128.691 88.8745 128.691 89.8776C128.691 90.9811 127.887 92.6865 126.982 93.5893C125.977 94.4922 123.564 96.0973 121.654 97.1004C118.538 98.7055 115.22 99.0065 92.5004 99.3074C74.6061 99.508 65.0558 99.3074 60.8335 98.4045C56.5107 97.5017 53.7964 96.1976 51.2832 93.8903Z" fill="white"/>
<path d="M58.3203 114.957C58.3203 113.653 59.225 111.546 60.3309 110.443C62.0399 108.737 63.6483 108.436 71.8918 108.436C80.7384 108.436 81.6432 108.637 83.9554 110.944C85.3628 112.349 86.4686 114.455 86.4686 115.458C86.4686 116.963 87.0718 117.465 88.9819 117.465C90.9925 117.465 91.4951 116.963 91.4951 114.957C91.4951 113.653 92.3999 111.546 93.5057 110.443C95.2147 108.737 96.8232 108.436 105.569 108.436C115.321 108.436 115.622 108.537 117.633 111.245C118.739 112.75 119.643 114.756 119.643 115.759C119.643 117.164 120.548 117.565 123.866 117.766C127.384 117.966 128.189 118.368 128.189 119.973C128.189 121.678 127.384 122.079 124.167 122.28C120.649 122.581 120.046 122.982 119.342 125.59C118.94 127.195 117.934 129.202 117.03 130.004C116.024 131.008 113.411 131.509 109.49 131.509C106.172 131.509 102.252 130.907 100.744 130.205C99.2359 129.402 96.7227 127.396 95.2147 125.691C93.0031 123.183 91.6962 122.481 88.4792 122.481C85.2623 122.481 84.1564 122.982 82.9501 124.989C82.1458 126.393 79.9342 128.399 78.1246 129.503C75.7119 131.008 73.1987 131.509 68.3732 131.509C63.5478 131.509 61.3362 131.008 60.0293 129.804C59.024 128.801 58.2197 126.794 58.2197 125.289C58.3203 122.681 58.0187 122.481 53.7964 122.481C51.2832 122.481 49.0715 122.079 48.7699 121.477C48.4683 120.976 48.7699 119.872 49.4736 118.97C50.2779 118.067 52.2885 117.465 54.5001 117.465C57.9181 117.465 58.3203 117.264 58.3203 114.957Z" fill="white"/>
</svg>
