<svg width="177" height="178" viewBox="0 0 177 178" fill="none" xmlns="http://www.w3.org/2000/svg">
<path d="M47.6892 10.7736C51.6 8.87165 56.9148 6.46924 59.7225 5.46823C62.5303 4.46723 65.6389 3.86662 66.742 4.16693C67.845 4.36713 72.5581 5.06783 77.2712 5.56833C81.9842 6.06884 89.104 7.47024 93.1151 8.57135C97.0259 9.67245 103.845 12.2751 108.056 14.4773C112.368 16.5794 118.586 20.3832 121.895 22.8857C125.204 25.2881 130.118 29.7927 132.825 32.6956C135.533 35.6986 139.945 41.5044 142.652 45.6085C145.36 49.7127 148.97 56.7197 150.675 61.1241C152.279 65.5286 154.285 72.4355 155.087 76.3394C155.889 80.3434 156.491 87.9511 156.491 93.1563C156.491 98.3615 155.889 105.969 155.087 109.973C154.285 113.877 152.279 120.784 150.574 125.188C148.87 129.593 145.36 136.6 142.652 140.704C139.945 144.808 134.73 151.215 131.02 155.018C127.41 158.722 121.093 163.827 117.081 166.53C113.07 169.133 107.956 172.136 105.65 173.237C103.343 174.338 101.639 175.539 101.839 176.04C102.14 176.44 99.7334 177.041 96.6248 177.341C93.4159 177.741 87.1987 177.741 82.7864 177.441C78.3742 177.141 71.1542 175.939 66.742 174.738C62.3298 173.637 54.7087 170.734 49.6948 168.232C44.6809 165.829 37.5611 161.325 33.6503 158.222C29.7395 155.219 24.0236 149.613 20.8147 145.909C17.1045 141.605 13.0934 135.199 9.58363 128.191C6.67558 122.185 3.36641 113.977 2.36363 110.173C1.06002 104.868 0.558628 99.5627 0.658905 88.6518C0.658905 78.0411 1.16029 72.4355 2.46391 67.6307C3.36641 64.027 6.37474 56.6196 8.98197 51.1141C11.6895 45.6085 16.5028 37.8007 19.7117 33.6966C23.0209 29.6926 29.0375 23.5864 33.1489 20.2831C37.2603 16.9798 43.7784 12.7756 47.6892 10.7736Z" fill="#0065C2"/>
<path d="M68.2466 3.26581C69.0488 2.96551 71.7563 2.26481 74.2633 1.7643C76.7702 1.1637 82.6866 0.763297 87.6002 0.663197C93.1155 0.563096 99.8341 1.3639 106.051 2.66521C111.466 3.86641 119.288 6.26883 123.399 7.97053C127.511 9.77234 133.828 13.1758 137.438 15.5782C141.048 17.9806 146.363 22.2849 149.371 24.9876C152.279 27.7904 156.692 32.7955 159.199 36.0988C161.706 39.4021 165.516 45.7084 167.722 50.1129C170.029 54.5173 172.836 62.4252 174.24 67.6304C176.146 75.138 176.647 79.7426 176.647 89.1521C176.647 98.5615 176.146 103.266 174.24 110.674C172.836 116.079 169.828 124.087 167.221 129.192C164.614 134.097 160.101 141.204 156.992 144.908C153.984 148.712 148.469 154.217 144.759 157.321C140.948 160.324 133.427 165.128 127.912 167.831C122.397 170.534 114.475 173.637 110.363 174.638C106.252 175.639 102.341 176.34 101.84 176.039C101.338 175.739 104.046 173.837 107.856 171.835C111.667 169.833 117.082 166.63 119.89 164.728C122.597 162.826 127.812 158.322 131.321 154.718C134.831 151.114 139.945 144.808 142.653 140.704C145.36 136.6 148.87 129.593 150.575 125.188C152.279 120.784 154.285 113.877 155.087 109.973C155.889 105.969 156.491 98.3613 156.491 93.1561C156.491 87.9508 155.889 80.3432 155.087 76.3392C154.285 72.4353 152.279 65.5283 150.675 61.1239C148.97 56.7195 145.36 49.7124 142.653 45.6083C139.945 41.5042 135.533 35.6984 132.826 32.6954C130.118 29.7924 125.204 25.2879 121.895 22.8855C118.586 20.383 112.269 16.5792 107.856 14.377C103.444 12.0747 95.5222 9.27184 90.3077 7.97053C85.0933 6.56913 78.7758 5.46802 76.2688 5.46802C73.7619 5.36792 70.6533 5.06762 69.2494 4.56712C67.4444 4.06661 67.1435 3.66621 68.2466 3.26581Z" fill="#004C91"/>
<path d="M61.0259 54.9176C61.7279 53.6163 63.7334 51.9146 65.5385 51.1138H65.4382C67.2432 50.313 69.4493 49.7124 70.2515 49.6123C71.0537 49.6123 75.5662 51.0137 88.8029 55.9186L94.8196 53.7164C98.1287 52.4151 102.34 50.9136 104.045 50.2129C106.753 49.312 107.956 49.4121 110.864 50.9136C112.769 51.8145 115.076 53.6163 115.878 54.9176C116.68 56.1188 118.585 61.6244 119.989 67.1299C121.393 72.6354 122.897 78.8417 123.499 80.9438C124.301 84.4473 124.602 84.6475 128.413 84.6475C131.722 84.6475 132.524 85.0479 133.025 86.9498C133.326 88.151 133.126 89.4523 132.624 89.9528C132.123 90.3532 112.067 90.5534 44.6807 90.153V87.6505C44.6807 85.4483 45.1821 85.0479 52.7029 84.147L56.3129 70.6334C58.2182 63.226 60.4243 56.1188 61.0259 54.9176Z" fill="white"/>
<path d="M54.0065 99.4624C55.6109 97.7607 58.6193 95.4583 60.8254 94.5574C63.0315 93.5564 66.0398 92.6555 67.6443 92.6555C69.1485 92.6555 72.0565 93.3562 74.1623 94.2571C76.1679 95.0579 78.6748 96.5595 79.7779 97.4604C81.1818 98.7617 83.4882 99.1621 89.1037 99.1621C95.5215 99.1621 96.8251 98.8618 98.7304 96.8598C99.9338 95.5584 102.641 94.0569 104.647 93.5564C106.652 92.9558 110.062 92.7556 112.168 93.156C114.273 93.5564 117.282 94.6575 118.987 95.6585C120.691 96.5595 122.998 98.9619 124.201 100.764C125.404 102.666 126.608 105.769 127.009 107.671C127.41 109.573 127.209 112.976 126.608 115.178C126.006 117.581 124 120.684 121.794 122.886C119.388 125.288 116.379 127.09 113.672 127.691C110.864 128.358 108.123 128.358 105.449 127.691C103.243 127.19 100.034 125.489 98.3293 123.987C96.5243 122.385 94.4185 119.883 93.6162 118.181C92.814 116.479 92.0118 112.976 92.0118 110.173C91.9115 105.268 91.8112 105.168 85.3935 104.668V109.673C85.3935 112.676 84.5912 116.279 83.3879 118.682C82.1846 121.084 79.5773 123.787 77.0704 125.388C73.8615 127.491 71.6554 128.091 67.8448 128.091C65.0371 127.991 61.3268 127.29 59.5218 126.289C57.8171 125.388 55.2098 123.186 53.8059 121.484C52.4021 119.683 50.9982 116.379 50.6973 114.177C50.2962 111.975 50.2962 108.471 50.6973 106.469C50.9982 104.367 52.5023 101.264 54.0065 99.4624Z" fill="white"/>
</svg>
