<svg width="177" height="178" viewBox="0 0 177 178" fill="none" xmlns="http://www.w3.org/2000/svg">
<path d="M47.2 10.3061C49.903 8.90146 55.1089 6.79455 58.713 5.5906C62.3171 4.28633 65.9212 3.28304 66.7221 3.18271C68.0236 3.08238 68.0236 3.18271 66.7221 4.08567C65.6209 4.78797 66.622 5.08896 70.2261 5.08896C72.9292 5.08896 78.1351 5.5906 81.7392 6.09225C85.3433 6.69422 91.1499 8.09882 94.754 9.30277C98.3581 10.4064 103.964 12.714 107.268 14.4195C110.572 16.0248 115.778 19.0347 118.781 21.1416C121.785 23.1482 127.691 28.4656 131.796 32.8801C135.901 37.2945 140.806 43.3143 142.508 46.3242C144.31 49.334 147.314 55.3538 149.216 59.7682C151.118 64.1827 153.421 71.607 154.422 76.3225C155.723 82.8439 155.923 87.8603 155.523 97.3916C155.223 104.314 154.222 112.642 153.321 115.952C152.42 119.263 149.516 126.487 146.813 132.005C144.01 137.924 139.605 144.847 136.101 149.061C132.797 152.873 127.291 158.592 123.687 161.602C120.083 164.612 113.175 169.127 108.369 171.635C103.464 174.143 99.3592 176.451 99.159 176.852C98.9588 177.354 93.6527 177.655 87.5458 177.655C78.936 177.655 74.0304 177.153 66.7221 175.247C61.5162 173.943 54.308 171.535 50.7039 169.829C47.0998 168.123 41.6937 165.114 38.6903 163.007C35.6869 161 30.0805 156.385 26.3763 152.673C22.572 149.061 17.7665 143.543 15.6641 140.533C13.6618 137.523 10.258 131.704 8.2557 127.691C6.25342 123.778 3.65047 116.956 2.4491 112.742C0.546939 106.12 0.146484 102.508 0.146484 89.3653C0.146484 76.0215 0.446826 72.6103 2.4491 65.788C3.75058 61.3735 6.65388 54.1498 8.85638 49.7353C11.0589 45.3209 14.5629 39.4015 16.5651 36.6926C18.6675 33.8834 22.3717 29.6695 24.7745 27.061C27.1772 24.5528 32.0828 20.339 35.6869 17.7304C39.291 15.0215 44.3968 11.7107 47.2 10.3061Z" fill="#E27100"/>
<path d="M67.9232 3.68441C69.2246 2.88178 73.6297 1.77816 77.7343 1.27652C81.839 0.774873 88.4465 0.473886 92.2508 0.774873C96.0551 1.07586 102.162 1.87849 105.766 2.58079C109.37 3.2831 115.878 5.28967 120.283 6.99527C124.688 8.70086 131.896 12.413 136.301 15.3226C140.706 18.2321 147.213 23.5495 150.717 27.1614C154.221 30.7732 158.927 36.3916 161.229 39.7025C163.432 43.0134 166.635 48.9328 168.437 52.7453C170.239 56.6581 172.742 63.7814 173.944 68.7979C175.545 75.4196 176.146 80.9377 176.146 89.3653C176.146 97.6926 175.545 103.311 173.944 109.732C172.842 114.548 170.44 121.471 168.738 125.183C167.036 128.995 163.732 134.915 161.329 138.527C158.927 142.138 153.42 148.459 149.115 152.673C144.811 156.887 138.603 162.003 135.3 164.11C131.996 166.217 126.89 169.026 124.087 170.331C121.184 171.635 115.477 173.541 111.473 174.545C107.568 175.648 103.063 176.752 101.561 177.053C99.9596 177.354 98.9584 177.354 99.1587 176.952C99.3589 176.451 103.464 174.143 108.369 171.635C113.175 169.127 120.082 164.612 123.687 161.602C127.291 158.592 132.797 152.874 136.101 149.061C139.605 144.847 144.01 137.925 146.813 132.005C149.516 126.487 152.419 119.263 153.32 115.952C154.221 112.642 155.222 104.314 155.523 97.3916C155.923 87.8604 155.723 82.8439 154.421 76.3226C153.42 71.6071 151.118 64.1828 149.216 59.7683C147.313 55.3538 144.31 49.3341 142.508 46.3242C140.806 43.3143 135.9 37.2946 131.796 32.8801C127.691 28.4657 121.784 23.1482 118.781 21.1416C115.778 19.0347 110.572 16.0249 107.268 14.4196C103.964 12.714 98.3578 10.4065 94.7537 9.30283C91.1496 8.09888 85.343 6.69428 81.7389 6.09231C78.1348 5.59066 73.029 5.08902 70.426 5.08902C65.8208 5.08902 65.7207 4.98869 67.9232 3.68441Z" fill="#A95500"/>
<path d="M65.7214 59.2668C66.3221 56.1566 67.5235 53.849 69.6259 52.0431C71.4279 50.4378 73.9308 49.2339 75.5326 49.2339C77.0343 49.2339 80.4382 50.1368 83.2414 51.1401C88.1469 53.0464 88.3472 53.0464 92.7522 51.1401C95.255 50.0365 98.3585 49.2339 99.7601 49.2339C101.162 49.2339 103.765 50.1368 105.467 51.2405C107.569 52.4444 109.071 54.451 109.671 56.5579C110.172 58.2635 110.873 61.6747 111.774 68.2964H64.7203V66.0891C64.8204 64.7849 65.2209 61.775 65.7214 59.2668Z" fill="white"/>
<path d="M62.718 80.1352C62.718 78.8309 63.0184 76.8243 63.3187 75.6204L63.9194 73.3128H112.775V75.6204C112.775 76.8243 112.975 78.8309 113.776 82.3424H62.718V80.1352Z" fill="white"/>
<path d="M48.1014 88.1615C47.8011 86.7569 48.2015 85.252 49.3028 84.1484C50.2038 83.1451 51.6054 82.4428 52.3062 82.4428C53.1071 82.4428 55.1094 83.4461 56.9114 84.65C60.1151 86.8572 61.1162 86.9576 113.275 87.4592L118.582 84.65C122.786 82.4428 124.288 82.1418 125.589 83.0447C126.49 83.6467 127.392 85.1516 127.592 86.5563C127.792 87.9609 126.991 89.7668 125.589 91.1714C124.288 92.4757 121.485 94.1812 119.282 94.9839C115.979 96.2882 110.272 96.4888 57.0115 95.9872L52.9069 93.178C50.6043 91.673 48.4018 89.3655 48.1014 88.1615Z" fill="white"/>
<path d="M58.9137 108.629C59.4143 107.826 60.8159 106.923 62.0172 106.421C63.2186 105.92 67.123 105.518 70.7271 105.518C74.3312 105.518 78.536 105.92 80.2379 106.421C81.8398 107.023 83.7419 108.528 84.4427 109.933C85.1435 111.337 85.7442 113.143 85.7442 114.046C85.7442 114.949 86.6452 115.551 88.247 115.551C90.3494 115.551 90.7499 115.05 90.6498 112.742C90.6498 111.137 91.5508 109.13 92.8523 108.027C94.354 106.522 96.7567 105.819 101.062 105.619C104.465 105.418 108.971 105.518 110.973 105.819C113.075 106.221 115.678 107.425 116.779 108.528C117.881 109.532 118.782 111.638 118.782 113.043C118.782 115.25 119.182 115.551 122.987 115.752C126.19 115.953 127.291 116.454 127.492 117.759C127.692 119.163 126.991 119.564 123.287 119.564C119.082 119.564 118.782 119.765 118.782 122.073C118.782 123.377 117.68 125.685 116.279 127.089C114.377 128.995 112.875 129.497 109.071 129.497C106.368 129.497 102.463 128.694 100.261 127.691C98.0582 126.688 95.255 124.481 93.9535 122.675C92.2516 120.267 90.9501 119.464 88.4473 119.464C86.0445 119.464 84.3426 120.367 81.7396 123.176C79.8375 125.183 76.734 127.39 74.9319 128.193C73.1299 128.895 69.5258 129.497 66.9228 129.497C64.2197 129.497 61.3164 128.795 60.2152 127.892C59.1139 127.089 57.9126 124.982 57.6122 123.176C57.2118 120.267 56.7112 119.966 52.6065 119.564C49.6031 119.163 48.2015 118.561 48.2015 117.558C48.2015 116.454 49.6031 115.852 52.7067 115.551C56.6111 115.05 57.2118 114.648 57.5121 112.541C57.7123 111.137 58.313 109.331 58.9137 108.629Z" fill="white"/>
</svg>
