<svg width="177" height="178" viewBox="0 0 177 178" fill="none" xmlns="http://www.w3.org/2000/svg">
<path d="M66.7857 4.16589C66.9861 3.86573 69.6912 2.96527 72.6968 2.16486C75.7025 1.36445 82.4151 0.664093 87.4245 0.664093C94.037 0.564042 99.7477 1.2644 107.262 3.06532C113.073 4.46604 120.587 6.86727 123.993 8.36804C127.5 9.86881 133.01 12.9704 136.317 15.1715C139.623 17.2726 145.133 21.7749 148.74 25.0766C152.247 28.3783 157.056 33.7811 159.36 37.0827C161.764 40.3844 165.271 46.3875 167.275 50.2895C169.279 54.2916 171.783 61.0951 172.986 65.2972C174.188 69.5994 175.49 76.703 175.891 81.1053C176.292 85.5076 176.192 92.9114 175.791 97.6138C175.29 102.316 174.188 108.82 173.286 112.121C172.384 115.423 169.78 122.126 167.475 127.129C165.071 132.031 160.462 139.635 157.056 143.837C153.649 148.14 147.337 154.443 143.129 157.745C138.821 161.146 131.207 165.849 126.298 168.25C121.288 170.551 114.375 173.253 110.768 174.153C107.162 175.053 103.355 175.654 102.252 175.454C100.85 175.254 101.852 174.453 105.759 172.552C108.765 171.151 114.175 168.05 117.782 165.649C121.388 163.147 126.999 158.445 130.405 155.143C133.712 151.842 138.821 145.538 141.727 141.136C144.632 136.734 148.339 129.53 149.942 125.128C151.645 120.726 153.749 113.722 154.551 109.62C155.653 104.117 155.954 98.5142 155.553 89.1094C155.152 78.7041 154.551 74.4019 152.347 67.5984C150.844 62.896 147.838 55.6923 145.634 51.5902C143.43 47.4881 139.222 41.0848 136.216 37.2829C133.211 33.581 127.801 28.1782 124.094 25.1767C120.286 22.1751 115.077 18.4732 112.271 16.8724C109.566 15.2716 104.056 12.6702 100.249 11.1695C96.4415 9.56866 90.33 7.76773 86.7232 7.06737C83.1164 6.26696 78.2072 5.46655 75.7025 5.1664C73.1978 4.86625 70.0919 4.66614 68.7895 4.66614C67.487 4.56609 66.5853 4.36599 66.7857 4.16589Z" fill="#008301"/>
<path d="M48.6519 10.0688C51.6576 8.56806 57.0677 6.26688 60.6745 4.96622C64.2813 3.7656 67.8881 2.66504 68.6896 2.66504C69.5913 2.66504 69.4911 3.06524 68.1887 3.5655C66.3853 4.36591 66.3853 4.46596 68.6896 4.56601C70.0922 4.56601 73.1981 4.86617 75.7028 5.16632C78.2075 5.46647 83.1168 6.26688 86.7235 7.06729C90.3303 7.76765 96.4418 9.56858 100.249 11.1694C104.056 12.6702 109.567 15.2715 112.272 16.8723C115.077 18.4731 120.287 22.175 124.094 25.1766C127.801 28.1781 133.211 33.5809 136.217 37.2828C139.222 41.0847 143.43 47.488 145.634 51.5901C147.839 55.6922 150.844 62.8959 152.347 67.5983C154.551 74.4018 155.152 78.704 155.553 89.1093C155.954 98.5141 155.653 104.117 154.551 109.62C153.75 113.722 151.646 120.726 149.943 125.128C148.34 129.53 144.633 136.734 141.727 141.136C138.822 145.538 133.712 151.841 130.406 155.143C126.999 158.445 121.389 163.147 117.782 165.649C114.175 168.05 108.865 171.051 106.06 172.352C103.154 173.653 100.95 174.953 101.151 175.454C101.451 175.854 99.9484 176.454 97.9447 176.854C95.9409 177.255 91.5326 177.655 88.2264 177.655C84.9202 177.655 78.4079 176.954 73.699 176.054C68.9902 175.153 61.5762 173.152 57.1679 171.552C52.7596 169.951 46.047 166.749 42.1396 164.448C38.3325 162.147 31.8202 157.044 27.7125 153.142C23.7049 149.34 18.395 143.437 15.9904 140.135C13.6861 136.834 10.1795 130.731 8.17572 126.629C6.27214 122.526 3.66724 115.523 2.36478 111.121C0.461202 104.317 0.060448 100.915 0.160637 88.6091C0.260825 75.8025 0.561391 73.0011 2.96592 65.097C4.46874 60.0945 7.77497 52.2905 10.1795 47.5881C12.6842 42.8856 16.9923 36.3823 19.6974 33.0806C22.4025 29.7789 26.7106 25.2766 29.3155 22.9754C32.0206 20.7743 36.1283 17.5727 38.633 15.8718C41.1378 14.1709 45.6462 11.5696 48.6519 10.0688Z" fill="#00AF01"/>
<path d="M59.9732 55.8926C61.1755 52.9911 62.7785 50.1897 63.6802 49.5894C64.4817 49.0891 66.2851 48.6889 67.6877 48.6889C69.0904 48.5889 72.1962 49.5894 74.7009 50.6899C77.2057 51.8906 82.1149 52.9911 85.7217 53.2913C91.1319 53.6915 93.4362 53.2913 99.2471 51.1902C103.054 49.6894 107.362 48.5889 108.765 48.5889C110.168 48.5889 112.272 49.3893 113.574 50.3898C115.377 51.6905 116.68 54.9921 119.285 65.5976C121.188 73.0014 122.791 80.105 122.791 81.4057C122.791 83.4067 122.09 83.7069 115.578 84.8074C111.47 85.5078 99.5477 86.1081 88.7273 86.1081C76.9051 86.1081 66.5857 85.6078 62.6783 84.8074C59.0715 84.1071 55.3645 83.0065 54.3627 82.3061C52.5593 81.1055 52.6595 80.7053 55.1642 71.1004C56.667 65.5976 58.8711 58.694 59.9732 55.8926Z" fill="#FFFCF9"/>
<path d="M37.531 81.9059C37.9317 80.9054 40.3363 79.1045 42.7408 77.9039C45.1453 76.6032 47.65 75.6027 48.2512 75.6027C48.9525 75.6027 49.4534 76.8033 49.3532 78.4041C49.3532 79.9049 49.4534 81.9059 49.4534 82.9064C49.5536 83.8069 50.5555 85.1076 51.6576 85.6078C52.7596 86.1081 57.1679 87.3087 61.3759 88.1091C66.786 89.1096 75.3021 89.6099 89.2283 89.5098C100.249 89.5098 112.472 89.0096 116.379 88.3092C120.287 87.6089 124.194 86.4082 125.196 85.6078C126.599 84.5073 126.899 83.0065 126.699 79.8049C126.298 75.7028 126.398 75.6027 128.803 76.103C130.205 76.5032 132.61 77.5037 134.213 78.4041C135.816 79.3046 137.619 80.9054 138.22 81.9059C139.022 83.1066 139.022 84.1071 138.22 85.4077C137.619 86.3082 135.816 87.909 134.213 88.8095C132.61 89.81 127.901 91.4108 123.793 92.5114C119.686 93.5119 110.669 95.0127 103.756 95.613C96.3417 96.4134 86.7236 96.6135 80.2113 96.2133C74.0998 95.8131 65.9845 95.1127 62.1774 94.5124C58.27 93.9121 53.1604 92.9116 50.6557 92.2112C48.151 91.5109 44.444 90.0101 42.2398 89.0096C40.1359 88.0091 37.9317 86.3082 37.531 85.4077C37.03 84.4072 37.03 82.8064 37.531 81.9059Z" fill="#FFFCF9"/>
<path d="M49.0527 109.62C48.6519 107.719 48.9525 105.118 49.5536 103.817C50.7559 101.516 51.0564 101.516 58.9713 102.316C63.4798 102.717 76.4041 103.117 87.7254 103.117C99.0468 103.117 111.971 102.817 116.48 102.416C124.394 101.616 124.895 101.716 126.298 103.917C127.601 105.818 127.701 106.819 126.599 111.021C125.797 114.022 123.793 117.624 121.689 120.025C119.786 122.327 115.979 125.128 113.474 126.429C110.869 127.629 106.16 128.93 102.954 129.23C97.6441 129.83 96.9428 129.63 93.2358 126.729C91.0317 124.928 88.527 123.627 87.7254 123.627C86.9239 123.627 84.6196 125.128 82.716 126.829C79.4098 129.73 78.9089 129.931 73.1981 129.33C69.4911 128.93 64.9826 127.629 61.6764 125.928C57.6689 123.827 55.2644 121.726 52.8598 118.124C51.0564 115.323 49.3532 111.521 49.0527 109.62Z" fill="#FFFCF9"/>
<path d="M59.6729 113.922C59.6729 113.222 60.5745 111.721 61.6766 110.621C63.2796 109.02 64.9828 108.62 69.6917 108.62C72.9979 108.62 77.0055 109.32 78.7087 110.12C80.4119 110.921 81.8145 112.221 81.8145 112.922C81.9147 113.522 81.8145 114.823 81.7143 115.623C81.6141 116.424 80.8126 117.924 79.9109 119.025C78.9091 120.025 77.1057 121.226 75.703 121.726C74.3004 122.327 71.5953 122.327 69.6917 121.926C67.7881 121.526 64.7825 119.825 62.9791 118.124C61.1757 116.524 59.773 114.523 59.6729 113.922Z" fill="#00AF01"/>
<path d="M95.34 112.822C95.9411 111.921 97.5441 110.521 98.8466 109.92C100.149 109.22 104.056 108.62 107.463 108.62C111.771 108.62 114.276 109.12 115.278 110.12C116.079 110.921 116.78 112.522 116.78 113.622C116.78 114.723 115.678 116.724 114.276 118.124C112.873 119.525 110.068 121.126 107.964 121.726C104.958 122.627 103.555 122.527 100.45 121.226C98.4458 120.326 96.1415 118.425 95.4402 117.024C94.5385 115.123 94.5385 114.022 95.34 112.822Z" fill="#00AF01"/>
<path d="M64.482 114.222C64.2816 113.422 65.0831 112.522 66.1852 112.321C67.2872 112.021 69.9923 112.021 72.1965 112.321C74.4006 112.622 76.8052 113.322 77.6067 114.022C78.7087 114.923 78.5084 115.423 76.6048 116.924C75.3023 117.924 73.3988 118.725 72.4971 118.625C71.4952 118.625 69.3912 117.924 67.688 117.124C65.9848 116.323 64.5822 115.023 64.482 114.222Z" fill="#FFFCF9"/>
<path d="M98.5461 114.623C98.4459 114.122 99.8485 113.222 101.752 112.722C103.656 112.121 106.862 111.921 108.765 112.221C110.669 112.421 112.472 112.822 112.773 113.122C113.073 113.422 112.372 114.523 111.27 115.623C110.168 116.724 107.964 117.924 106.261 118.224C104.357 118.525 102.453 118.124 101.051 117.224C99.7483 116.323 98.6463 115.223 98.5461 114.623Z" fill="#FFFCF9"/>
</svg>
