<svg width="177" height="178" viewBox="0 0 177 178" fill="none" xmlns="http://www.w3.org/2000/svg">
<path d="M47.6786 10.5397C50.6869 9.03298 55.9014 6.72275 59.2106 5.51741C62.5198 4.31207 65.9293 3.30762 66.7315 3.30762C67.634 3.30762 67.4334 3.60895 66.2301 4.11118C64.7259 4.71385 65.7287 5.01518 69.7399 5.01518C72.7482 5.11563 78.1633 5.61785 81.7733 6.12008C85.3833 6.72274 91.1995 8.12897 94.8095 9.33431C98.4195 10.4392 104.035 12.7494 107.344 14.457C110.654 16.0641 115.868 19.1779 118.876 21.1868C121.885 23.2962 127.801 28.5193 131.913 32.9389C136.024 37.258 140.938 43.3851 142.642 46.3985C144.447 49.3114 147.456 55.4385 149.361 59.8581C151.266 64.2777 153.573 71.7106 154.576 76.4315C155.879 82.9605 156.08 87.9827 155.679 97.525C155.378 104.456 154.375 112.793 153.473 116.107C152.57 119.422 149.662 126.654 146.954 132.178C144.147 138.105 139.734 145.035 136.225 149.254C132.915 153.071 127.4 158.796 123.79 161.81C120.18 164.823 113.361 169.343 108.748 171.653C104.135 174.064 99.8234 176.475 99.3221 176.977C98.7204 177.58 92.6034 177.78 84.7816 177.58C73.4502 177.278 69.8401 176.676 62.7203 174.466C58.0073 172.959 50.7872 169.845 46.6758 167.636C42.5643 165.426 36.6479 161.609 33.6395 159.299C30.6312 156.888 26.3192 152.971 24.0128 150.56C21.8067 148.25 18.5978 144.433 16.893 142.223C15.1883 140.013 11.9794 134.79 9.77323 130.672C7.46682 126.554 4.45847 119.121 2.95429 114.098C0.44732 105.962 0.246763 103.552 0.146484 89.4894C0.146484 75.3266 0.44732 73.1168 2.95429 64.8804C4.45847 59.8581 7.46682 52.4252 9.77323 48.3069C11.9794 44.1887 15.6897 38.2625 18.0964 35.2491C20.4028 32.2358 24.815 27.4144 27.7231 24.7024C30.7315 21.8899 35.1437 18.1735 37.6507 16.4659C40.1577 14.7583 44.6702 12.1468 47.6786 10.5397Z" fill="#0065C2"/>
<path d="M67.7344 3.50838C69.6397 2.70482 74.453 1.70037 78.2636 1.19815C82.0742 0.695921 88.1912 0.495031 91.8012 0.796366C95.4113 1.0977 101.729 2.00171 105.84 2.80526C109.952 3.60882 116.771 5.61772 120.882 7.22484C124.993 8.73152 132.013 12.448 136.425 15.3609C140.837 18.2738 147.155 23.3965 150.464 26.7112C153.773 30.0258 158.687 36.153 161.495 40.2712C164.202 44.3895 167.712 50.9184 169.317 54.8357C170.921 58.7531 173.127 65.282 174.23 69.4003C175.534 74.5229 176.136 80.5496 176.136 87.9826C176.236 94.0093 175.634 101.944 175.032 105.56C174.331 109.176 172.526 115.705 170.921 120.125C169.317 124.545 166.108 131.375 163.801 135.192C161.495 139.009 156.18 145.738 151.968 150.158C147.857 154.477 141.74 159.901 138.431 162.111C135.122 164.421 128.804 167.836 124.392 169.946C119.98 171.955 113.662 174.265 110.353 175.169C107.044 175.972 103.133 176.977 101.629 177.278C100.024 177.579 99.0213 177.579 99.2219 177.178C99.4224 176.675 103.534 174.365 108.447 171.854C113.261 169.343 120.18 164.823 123.79 161.81C127.4 158.796 132.915 153.071 136.225 149.254C139.734 145.035 144.147 138.105 146.954 132.178C149.662 126.654 152.57 119.422 153.473 116.107C154.375 112.792 155.378 104.456 155.679 97.5248C156.08 87.9826 155.879 82.9603 154.576 76.4314C153.573 71.7105 151.266 64.2776 149.361 59.858C147.456 55.4384 144.448 49.3113 142.642 46.3984C140.938 43.385 136.024 37.2579 131.913 32.9387C127.801 28.5192 121.885 23.296 118.876 21.1867C115.868 19.1778 110.654 16.064 107.344 14.4569C104.035 12.7493 98.4196 10.4391 94.8096 9.33419C91.1996 8.12885 85.3834 6.72262 81.7734 6.11995C78.1633 5.61772 72.7483 5.1155 64.2246 5.01505L67.7344 3.50838Z" fill="#004C91"/>
<path d="M65.7291 59.3555C66.3308 56.2417 67.5341 53.9315 69.64 52.1235C71.445 50.5164 73.952 49.311 75.5564 49.311C77.0606 49.311 80.4701 50.215 83.2779 51.2195C88.1915 53.1279 88.3921 53.1279 92.8044 51.2195C95.3113 50.1146 98.42 49.311 99.8239 49.311C101.228 49.311 103.835 50.215 105.54 51.3199C107.646 52.5253 109.15 54.5342 109.751 56.6435C110.253 58.3511 110.955 61.7662 111.857 68.3956H64.7263V66.1858C64.8266 64.88 65.2277 61.8667 65.7291 59.3555Z" fill="white"/>
<path d="M62.7208 80.2481C62.7208 78.9423 63.0216 76.9334 63.3224 75.7281L63.9241 73.4178H112.86V75.7281C112.86 76.9334 113.061 78.9423 113.863 82.4579H62.7208V80.2481Z" fill="white"/>
<path d="M48.0801 88.2837C47.7793 86.8774 48.1804 85.3708 49.2834 84.2659C50.1859 83.2614 51.5898 82.5583 52.2918 82.5583C53.094 82.5583 55.0996 83.5628 56.9046 84.7681C60.1135 86.9779 61.1163 87.0783 113.361 87.5806L118.676 84.7681C122.888 82.5583 124.392 82.257 125.696 83.161C126.598 83.7636 127.501 85.2703 127.701 86.6766C127.902 88.0828 127.1 89.8908 125.696 91.297C124.392 92.6028 121.584 94.3104 119.378 95.1139C116.069 96.4197 110.353 96.6206 57.0049 96.1184L52.8935 93.3059C50.5871 91.7992 48.3809 89.489 48.0801 88.2837Z" fill="white"/>
<path d="M58.9102 108.774C59.4116 107.971 60.8155 107.067 62.0188 106.565C63.2222 106.062 67.133 105.661 70.7431 105.661C74.3531 105.661 78.5648 106.062 80.2695 106.565C81.874 107.167 83.7793 108.674 84.4812 110.08C85.1832 111.486 85.7849 113.294 85.7849 114.198C85.7849 115.102 86.6874 115.705 88.2918 115.705C90.3977 115.705 90.7988 115.203 90.6985 112.893C90.6985 111.286 91.601 109.277 92.9046 108.172C94.4088 106.665 96.8155 105.962 101.127 105.761C104.537 105.56 109.049 105.661 111.055 105.962C113.161 106.364 115.768 107.569 116.871 108.674C117.974 109.678 118.877 111.788 118.877 113.194C118.877 115.404 119.278 115.705 123.089 115.906C126.297 116.107 127.4 116.609 127.601 117.915C127.802 119.321 127.1 119.723 123.389 119.723C119.178 119.723 118.877 119.924 118.877 122.234C118.877 123.54 117.774 125.85 116.37 127.256C114.465 129.165 112.96 129.667 109.15 129.667C106.442 129.667 102.531 128.863 100.325 127.859C98.1191 126.855 95.3113 124.645 94.0077 122.837C92.303 120.426 90.9993 119.622 88.4924 119.622C86.0857 119.622 84.381 120.526 81.7737 123.339C79.8684 125.348 76.7598 127.558 74.9548 128.361C73.1498 129.064 69.5397 129.667 66.9325 129.667C64.225 129.667 61.3169 128.964 60.2138 128.06C59.1107 127.256 57.9074 125.147 57.6066 123.339C57.2055 120.426 56.7041 120.125 52.5926 119.723C49.5843 119.321 48.1804 118.718 48.1804 117.714C48.1804 116.609 49.5843 116.006 52.6929 115.705C56.6038 115.203 57.2055 114.801 57.5063 112.692C57.7068 111.286 58.3085 109.478 58.9102 108.774Z" fill="white"/>
</svg>
