<svg width="177" height="178" viewBox="0 0 177 178" fill="none" xmlns="http://www.w3.org/2000/svg">
<path d="M68.5655 3.50474C70.7672 2.70221 75.4707 1.59872 79.0735 1.19745C82.6762 0.695869 88.4806 0.495235 92.0833 0.796186C95.686 1.09714 101.991 1.99999 106.094 2.80252C110.197 3.60506 117.002 5.61139 121.105 7.21646C125.208 8.72122 132.214 12.4329 136.617 15.3421C141.02 18.2513 147.325 23.3675 150.628 26.6779C153.93 29.9884 159.034 36.3083 161.936 40.7223C164.838 45.1362 168.541 52.359 170.242 56.773C171.944 61.1869 173.945 67.7075 174.746 71.3189C175.446 74.9303 176.147 82.9557 176.147 89.1753C176.147 95.2946 175.546 103.42 174.746 107.132C173.945 110.944 172.144 117.164 170.643 120.976C169.242 124.788 166.139 131.208 163.837 135.02C161.636 138.832 156.532 145.353 152.629 149.466C148.826 153.478 142.922 158.795 139.619 161.102C136.317 163.51 130.913 166.72 127.61 168.426C124.308 170.031 119.404 172.137 116.602 173.141C113.8 174.043 108.796 175.347 105.493 175.949C102.091 176.652 99.4889 176.953 99.589 176.652C99.689 176.351 102.891 174.645 106.694 172.84C110.497 170.934 116.302 167.523 119.604 165.215C122.907 162.808 128.811 157.491 132.614 153.278C136.417 149.165 141.12 143.346 142.822 140.337C144.623 137.428 147.625 131.409 149.527 126.995C151.428 122.581 153.73 115.458 154.53 111.245C155.431 106.931 156.132 98.9061 156.132 93.3886C156.132 87.8712 155.431 79.8458 154.53 75.6325C153.63 71.3189 152.029 65.6009 151.028 62.792C149.927 60.0834 147.825 55.5692 146.424 52.7603C145.023 50.0518 142.421 45.7381 140.72 43.2302C139.119 40.7223 134.816 35.6061 131.213 31.7941C127.61 28.0824 122.106 23.2672 119.104 21.1605C116.101 19.1542 110.898 16.0443 107.595 14.4393C104.293 12.7339 98.6883 10.4266 95.0856 9.32312C91.4828 8.11931 85.6785 6.71488 82.0757 6.11298C78.473 5.61139 73.0689 5.10981 64.5625 5.00949L68.5655 3.50474Z" fill="#830000"/>
<path d="M45.5478 12.0318C48.8503 10.2261 54.6547 7.51751 58.5576 6.01275C62.3605 4.508 66.2635 3.3042 67.0641 3.3042C67.9647 3.3042 67.7646 3.60515 66.5637 4.10673C65.0626 4.70864 66.0633 5.00959 70.0663 5.00959C73.0686 5.1099 78.4727 5.61149 82.0754 6.11307C85.6781 6.71497 91.4825 8.11941 95.0852 9.32321C98.688 10.4267 104.292 12.734 107.595 14.4394C110.897 16.0444 116.101 19.1543 119.103 21.1606C122.106 23.2673 127.61 28.0825 131.213 31.7942C134.815 35.6062 139.118 40.7224 140.72 43.2303C142.421 45.7382 145.023 50.0518 146.424 52.7604C147.825 55.5693 149.927 60.0835 151.027 62.7921C152.028 65.601 153.629 71.319 154.53 75.5323C155.431 79.846 156.131 87.8713 156.131 93.3887C156.131 98.9062 155.431 106.932 154.53 111.245C153.73 115.458 151.428 122.581 149.526 126.995C147.625 131.409 144.623 137.428 142.821 140.337C141.12 143.347 136.416 149.165 132.614 153.278C128.811 157.491 122.906 162.808 119.604 165.216C116.301 167.523 110.497 170.934 106.694 172.84C102.891 174.645 99.6887 176.451 99.4886 176.852C99.2884 177.354 93.9844 177.655 87.7797 177.655C78.9731 177.655 74.5697 177.153 67.2642 175.147C62.2604 173.743 55.2551 171.335 51.8526 169.83C48.3499 168.225 42.6456 165.015 39.0429 162.607C35.4402 160.2 29.5357 155.284 25.933 151.673C22.3303 148.061 17.1263 141.641 14.5244 137.528C11.8223 133.415 8.51984 127.296 7.21886 123.985C5.8178 120.675 3.91636 114.756 2.81553 110.944C1.81477 107.132 0.713941 99.4077 0.313639 93.8903C-0.0866636 86.8681 0.213563 81.1501 1.41447 74.5292C2.31515 69.5133 4.31666 61.7889 6.01795 57.5756C7.61916 53.262 11.2219 46.1395 14.1241 41.7256C17.0263 37.3116 21.4296 31.4932 23.9315 28.7847C26.4334 26.0761 31.0368 21.9631 34.0391 19.6558C37.0414 17.3486 42.2453 13.9378 45.5478 12.0318Z" fill="#AF0000"/>
<path d="M67.6647 57.074C68.4654 55.4689 70.5669 53.5629 72.3683 52.7604C74.1697 51.9579 76.7716 51.5566 78.573 51.8575C80.2743 52.2588 82.7762 53.1617 84.3774 53.8639C85.8785 54.6664 87.6799 55.2683 88.3804 55.2683C88.9809 55.2683 91.6829 54.3655 94.3849 53.262C97.3872 51.9579 100.089 51.4563 101.891 51.8575C103.392 52.2588 105.794 53.6632 107.395 55.168C109.296 56.9737 110.297 59.1807 110.697 62.2905C110.997 64.7984 111.498 67.6073 111.698 68.5101C112.098 70.2155 110.497 70.3158 64.5624 70.3158L65.363 65.0994C65.8634 62.1902 66.8641 58.5788 67.6647 57.074Z" fill="white"/>
<path d="M63.0613 82.0529C63.0613 80.8491 63.3615 78.8428 63.6617 77.639L64.2622 75.3317H113.099V78.3412C113.099 80.0466 113.299 82.0529 113.599 82.8554C114 84.1596 110.797 84.3602 63.0613 84.3602V82.0529Z" fill="white"/>
<path d="M51.0522 93.8903C47.8498 90.8808 47.6496 90.4795 48.7505 88.0719C49.6511 86.2662 50.752 85.3634 52.5533 85.3634C53.8543 85.3634 56.2561 86.3665 57.7573 87.47C60.3592 89.376 61.9604 89.4764 88.0802 89.4764C113.8 89.376 115.801 89.2757 118.803 87.3697C120.605 86.2662 122.906 85.3634 123.807 85.3634C124.808 85.3634 126.209 85.9653 126.809 86.6675C127.51 87.3697 128.11 88.8745 128.11 89.8776C128.11 90.9811 127.31 92.6865 126.409 93.5893C125.408 94.4922 123.007 96.0973 121.105 97.1004C118.003 98.7055 114.7 99.0065 92.0832 99.3074C74.2697 99.508 64.7626 99.3074 60.5594 98.4045C56.2561 97.5017 53.5541 96.1976 51.0522 93.8903Z" fill="white"/>
<path d="M58.0575 114.957C58.0575 113.653 58.9582 111.546 60.059 110.443C61.7603 108.737 63.3615 108.436 71.5677 108.436C80.3744 108.436 81.275 108.637 83.5768 110.944C84.9778 112.349 86.0787 114.455 86.0787 115.458C86.0787 116.963 86.6791 117.465 88.5806 117.465C90.5821 117.465 91.0824 116.963 91.0824 114.957C91.0824 113.653 91.9831 111.546 93.084 110.443C94.7852 108.737 96.3864 108.436 105.093 108.436C114.8 108.436 115.101 108.537 117.102 111.245C118.203 112.75 119.104 114.756 119.104 115.759C119.104 117.164 120.004 117.565 123.307 117.766C126.809 117.966 127.61 118.368 127.61 119.973C127.61 121.678 126.809 122.079 123.607 122.28C120.104 122.581 119.504 122.982 118.803 125.59C118.403 127.195 117.402 129.202 116.502 130.004C115.501 131.008 112.899 131.509 108.996 131.509C105.693 131.509 101.791 130.907 100.289 130.205C98.7883 129.402 96.2864 127.396 94.7852 125.691C92.5836 123.183 91.2826 122.481 88.0802 122.481C84.8778 122.481 83.7769 122.982 82.576 124.989C81.7754 126.393 79.5737 128.399 77.7724 129.503C75.3706 131.008 72.8687 131.509 68.0651 131.509C63.2614 131.509 61.0598 131.008 59.7588 129.804C58.758 128.801 57.9574 126.794 57.9574 125.289C58.0575 122.681 57.7573 122.481 53.5541 122.481C51.0522 122.481 48.8505 122.079 48.5503 121.477C48.2501 120.976 48.5503 119.872 49.2508 118.97C50.0514 118.067 52.053 117.465 54.2546 117.465C57.6572 117.465 58.0575 117.264 58.0575 114.957Z" fill="white"/>
</svg>
