<svg width="178" height="178" viewBox="0 0 178 178" fill="none" xmlns="http://www.w3.org/2000/svg">
<path d="M67.835 3.26481C67.835 2.86327 70.4468 2.16057 73.6613 1.65864C76.7754 1.15671 83.2045 0.755171 87.9259 0.654785C92.6473 0.654785 99.3778 1.05633 102.994 1.55825C106.611 2.16057 112.437 3.56596 116.053 4.6702C119.67 5.87483 126.4 8.78601 131.121 11.2956C135.843 13.8053 142.473 18.1219 145.989 20.9327C149.505 23.8438 154.025 28.1604 156.135 30.67C158.144 33.1797 161.358 37.3959 163.267 40.2067C165.176 42.9171 168.189 48.3379 169.997 52.2529C171.806 56.168 174.217 62.8938 175.422 67.3108C177.13 73.5347 177.632 78.3532 177.632 88.8936C177.733 100.036 177.331 103.951 175.422 110.978C174.217 115.697 171.705 122.724 169.897 126.538C168.089 130.353 165.176 135.774 163.267 138.584C161.459 141.295 156.737 146.916 152.82 151.032C148.902 155.048 142.975 160.268 139.66 162.476C136.345 164.685 130.418 168.098 126.601 169.905C122.784 171.712 115.752 174.121 111.031 175.225C106.309 176.43 102.291 177.132 101.99 176.831C101.688 176.53 102.994 175.526 104.903 174.522C106.711 173.519 110.93 171.109 114.145 169.202C117.359 167.295 122.583 163.681 125.697 161.171C128.811 158.662 133.934 153.441 137.048 149.627C140.162 145.812 144.382 139.689 146.391 136.075C148.5 132.461 151.112 126.839 152.217 123.527C153.422 120.214 155.03 114.191 155.833 110.175C156.637 106.26 157.24 98.3299 157.24 92.7083C157.24 86.9863 156.537 79.4574 155.833 75.8435C155.03 72.2296 153.021 65.7046 151.413 61.2876C149.706 56.8707 146.089 49.8437 143.377 45.7279C140.665 41.6121 136.245 35.7897 133.532 32.7781C130.82 29.867 125.898 25.3496 122.583 22.9404C119.268 20.4307 112.939 16.6161 108.519 14.4076C104.099 12.0987 96.1632 9.28794 90.9396 7.98293C85.7159 6.57753 79.7891 5.57367 77.8804 5.57367C75.9718 5.57367 72.8577 5.27252 71.0495 4.87098C69.2413 4.36905 67.835 3.76674 67.835 3.26481Z" fill="#9900BF"/>
<path d="M48.7488 10.0912C50.6574 9.08738 55.1779 7.18005 58.7943 5.87504C62.4106 4.57003 66.2279 3.76695 67.3329 4.0681C68.4379 4.36926 73.1593 5.07196 77.8807 5.57388C82.6021 6.07581 89.7343 7.48121 93.7525 8.58545C97.6703 9.68969 104.501 12.2997 108.72 14.5082C113.04 16.6163 119.268 20.4309 122.583 22.9406C125.898 25.3498 130.82 29.8672 133.533 32.7784C136.245 35.7899 140.665 41.6123 143.377 45.7281C146.089 49.8439 149.706 56.8709 151.414 61.2878C153.021 65.7048 155.03 72.2299 155.834 75.8437C156.537 79.4576 157.24 86.9865 157.24 92.6081C157.24 98.3301 156.637 106.261 155.834 110.176C155.03 114.191 153.423 120.214 152.217 123.527C151.112 126.84 148.5 132.461 146.391 136.075C144.382 139.689 140.163 145.812 137.049 149.627C133.934 153.442 128.811 158.662 125.697 161.171C122.583 163.681 117.259 167.395 113.843 169.403C110.328 171.411 105.908 174.121 103.999 175.426C100.784 177.534 99.4785 177.735 87.9262 177.635C79.0861 177.635 73.2598 177.032 68.3375 175.727C64.5202 174.723 58.3924 172.716 54.7761 171.21C51.1597 169.805 44.8311 166.391 40.7124 163.681C36.5938 161.071 30.1646 155.851 26.5483 152.237C22.9319 148.623 17.6078 141.998 14.6946 137.581C11.7814 133.164 8.16505 126.137 6.55777 122.021C5.05095 117.905 2.9414 110.677 1.93685 105.959C0.630939 99.4343 0.430029 94.5154 0.831849 85.3803C1.13321 77.6507 2.13776 70.7241 3.44367 66.0059C4.64913 62.0909 6.85914 55.9674 8.36596 52.5543C9.87278 49.0408 12.9869 43.5196 15.1969 40.2069C17.3064 36.8942 21.626 31.4733 24.7401 28.1606C27.8542 24.8479 33.6806 19.8286 37.7992 17.0178C41.9179 14.207 46.8401 11.0951 48.7488 10.0912Z" fill="#CC00FF"/>
<path d="M61.6066 55.0636C62.3097 53.7586 64.3188 52.052 66.127 51.2489C67.8347 50.4459 70.0448 49.8435 70.8484 49.7432C71.652 49.7432 76.1725 51.1486 89.4325 56.0675L95.4598 53.859C98.7748 52.554 102.994 51.0482 104.702 50.3455C107.414 49.442 108.619 49.5424 111.533 51.0482C113.441 51.9516 115.752 53.7586 116.555 55.0636C117.359 56.2682 119.669 63.3956 121.578 70.8241C123.487 78.2526 125.094 84.4765 125.094 84.6773C125.094 84.7777 127.003 84.9785 129.414 85.1792C133.231 85.38 133.633 85.6812 133.633 90.3993H45.2324V87.8896C45.2324 85.6812 45.7347 85.2796 53.2688 84.3762L56.8852 70.8241C58.7938 63.3956 61.0038 56.2682 61.6066 55.0636Z" fill="white"/>
<path d="M55.077 99.0324C56.2824 97.7274 59.0952 95.8201 61.3052 94.8162C63.5152 93.8124 66.5288 92.9089 68.1361 92.9089C69.6429 92.9089 72.5561 93.6116 74.6657 94.5151C76.6748 95.3182 79.1861 96.824 80.2911 97.7274C81.6975 99.0324 84.008 99.434 89.6334 99.434C96.0625 99.434 97.3685 99.1328 99.2771 97.1251C100.483 95.8201 103.195 94.3143 105.204 93.8124C107.213 93.2101 110.628 93.0093 112.738 93.4109C114.848 93.712 118.163 95.017 120.071 96.322C121.98 97.5267 124.592 100.538 125.797 103.048C127.103 105.457 128.108 108.971 128.108 110.778C128.108 112.484 127.505 115.496 126.802 117.303C125.998 119.009 124.089 121.82 122.482 123.526C120.774 125.233 117.459 127.04 114.747 127.843C111.332 128.646 108.921 128.747 106.008 128.044C103.798 127.542 100.583 125.835 98.8753 124.33C97.0671 122.723 94.9575 120.214 94.1539 118.507C93.3503 116.801 92.5466 113.287 92.5466 110.476C92.4462 105.557 92.3457 105.457 85.9166 104.955V110.276C85.9166 113.789 85.2134 116.7 83.6062 119.411C82.4007 121.619 80.2911 124.229 78.8848 125.233C77.4784 126.237 74.5652 127.542 72.3552 128.044C69.9443 128.546 66.7297 128.546 64.3188 128.044C62.1088 127.542 59.1956 126.237 57.7893 125.233C56.3829 124.229 54.2734 121.619 53.0679 119.411C51.6615 117.102 50.7574 113.789 50.7574 111.279C50.7574 108.87 51.2597 105.758 51.8624 104.252C52.4652 102.646 53.8715 100.337 55.077 99.0324Z" fill="white"/>
</svg>
