<svg width="178" height="178" viewBox="0 0 178 178" fill="none" xmlns="http://www.w3.org/2000/svg">
<path d="M48.2757 10.1406C51.8853 8.3358 57.2999 6.02967 60.3079 5.12727C63.316 4.12461 66.3241 3.32248 66.8254 3.32248C67.427 3.22221 67.8281 3.72354 67.6276 4.22487C67.427 4.82647 69.8335 5.22754 73.3429 5.22754C76.6518 5.22754 82.5677 5.9294 86.3779 6.73154C90.1881 7.53367 96.9062 9.539 101.218 11.2435C105.429 12.8478 111.846 16.0563 115.456 18.3624C119.066 20.6686 124.38 24.6792 127.388 27.1859C130.296 29.6926 135.109 35.0067 138.117 38.8168C141.025 42.7272 145.236 49.4451 147.442 53.8568C149.648 58.2685 152.355 65.2872 153.558 69.3981C154.862 73.9101 155.965 81.3298 156.265 87.9474C156.667 94.8658 156.366 101.985 155.564 106.998C154.862 111.41 153.358 117.927 152.054 121.537C150.851 125.146 148.444 130.761 146.74 134.07C144.935 137.379 141.125 143.194 138.217 147.105C135.409 150.915 129.594 156.931 125.483 160.44C121.372 163.949 114.253 168.662 109.741 170.968C105.228 173.274 101.719 175.48 102.02 175.981C102.22 176.382 102.12 176.583 101.719 176.483C101.218 176.483 100.014 176.784 98.9115 177.185C97.8086 177.686 91.4916 177.786 84.8739 177.485C76.0502 177.084 70.4351 176.182 63.8174 174.177C58.8039 172.773 51.2837 169.665 46.8719 167.358C42.5603 165.052 36.0428 160.641 32.4331 157.633C28.8234 154.625 23.2084 148.909 19.9998 145.099C16.6909 141.289 12.3793 134.672 10.2737 130.561C8.16801 126.45 5.46075 120.133 4.35779 116.523C3.15456 112.914 1.75079 107.299 1.14918 103.99C0.64783 100.681 0.146484 93.7628 0.146484 88.6493C0.146484 83.6359 0.848368 75.9154 1.75079 71.7042C2.65321 67.3928 4.55832 60.7752 6.06236 56.8648C7.46613 52.9544 10.9755 46.2365 13.6828 41.8248C16.3901 37.4131 21.8046 30.595 25.7151 26.6846C29.5253 22.7742 34.7393 18.2622 37.246 16.5577C39.7528 14.8531 44.666 11.9454 48.2757 10.1406Z" fill="#E27100"/>
<path d="M68.1289 4.02457C68.8308 3.3227 71.9391 2.21977 75.1477 1.5179C78.4566 0.816039 85.2749 0.515239 91.3913 0.715772C97.4075 0.916305 105.329 2.01924 109.941 3.22243C114.353 4.32537 121.773 7.13283 126.486 9.33869C131.198 11.5446 137.916 15.5552 141.526 18.2624C145.136 20.9696 149.848 25.0805 152.154 27.4869C154.461 29.8933 158.171 34.305 160.376 37.313C162.582 40.321 166.292 46.6378 168.498 51.3503C170.704 56.0629 173.211 62.5802 174.113 65.889C174.915 69.1978 176.119 75.8154 176.62 80.7284C177.322 86.6442 177.322 92.4596 176.62 98.6761C176.018 103.79 174.214 112.012 172.509 117.025C170.905 122.038 167.195 129.859 164.387 134.572C161.479 139.284 156.366 146.002 153.057 149.511C149.748 153.021 144.333 157.934 141.025 160.34C137.716 162.847 132.101 166.356 128.491 168.161C124.881 169.966 118.765 172.372 114.955 173.575C111.144 174.678 106.231 175.881 104.226 176.182C102.12 176.483 100.416 176.483 100.416 176.182C100.416 175.881 104.326 173.675 109.239 171.269C114.052 168.762 121.372 163.849 125.483 160.44C129.594 156.931 135.409 150.915 138.217 147.105C141.125 143.194 144.935 137.379 146.74 134.07C148.444 130.761 150.851 125.146 152.054 121.537C153.358 117.927 154.862 111.41 155.564 106.998C156.366 101.985 156.667 94.866 156.265 87.9476C155.965 81.33 154.862 73.9103 153.558 69.3983C152.355 65.2874 149.648 58.2687 147.442 53.857C145.236 49.4453 141.025 42.7274 138.117 38.817C135.109 34.9066 130.296 29.6928 127.388 27.1861C124.38 24.6795 119.066 20.6688 115.456 18.3627C111.846 16.0565 105.429 12.848 101.218 11.2438C96.9061 9.53922 90.1881 7.53389 86.3779 6.73176C82.5677 5.92963 76.5515 5.22776 73.1424 5.22776C68.2292 5.22776 67.1262 4.92696 68.1289 4.02457Z" fill="#A95500"/>
<path d="M37.9478 72.7069C40.0534 71.5037 44.2647 69.5987 47.2728 68.4957C50.8825 67.1923 55.4949 66.4904 60.8091 66.4904C66.1234 66.3901 72.2398 67.1923 88.8845 71.3032L98.9114 68.6963C106.933 66.6909 110.743 66.2899 117.963 66.5907C126.185 66.8915 127.789 67.2925 143.03 74.9128L142.829 79.9261C142.629 83.5357 141.425 87.3458 138.317 93.3618C135.911 98.0743 132.301 103.589 130.296 105.695C127.689 108.201 124.781 110.006 121.271 111.009C118.364 111.811 115.155 112.513 114.253 112.513C113.25 112.513 110.041 111.31 107.234 109.906C104.326 108.402 99.9141 105.494 97.4073 103.489C94.9006 101.383 91.8925 99.1773 90.6893 98.5757C89.2855 97.8738 87.6812 97.7735 86.6786 98.3751C85.6759 98.8765 82.6678 101.183 79.8603 103.489C77.153 105.895 72.3401 109.003 69.332 110.307C64.2183 112.713 63.4161 112.814 58.3024 111.61C55.2943 111.009 51.2836 109.304 49.579 108.001C47.7741 106.597 44.5655 102.887 42.5602 99.7789C40.5548 96.5703 37.5467 90.5544 35.9424 86.4434C34.3381 82.3325 33.3354 78.0211 33.6362 76.9181C33.8367 75.8152 35.8421 73.9101 37.9478 72.7069Z" fill="white"/>
<path d="M51.0831 84.6387C50.9828 83.9368 51.9855 82.9342 53.3893 82.4328C54.6928 81.9315 57.8011 81.5304 60.3078 81.4302C63.4162 81.4302 65.8226 82.0318 68.2291 83.636C70.1342 84.9395 72.6409 87.1454 73.7439 88.7496C75.4485 90.9555 75.649 91.6574 74.546 92.7603C73.7439 93.4622 70.5353 93.9635 66.324 93.9635C59.6059 93.9635 59.3051 93.8632 55.2944 89.9528C53.0885 87.747 51.1833 85.3406 51.0831 84.6387Z" fill="#E27100"/>
<path d="M104.125 88.148C105.629 86.0424 108.236 83.636 109.941 82.8339C111.746 81.9315 115.155 81.4302 118.664 81.6307C121.773 81.8312 124.981 82.4328 125.683 83.1347C126.786 84.1374 126.485 85.0398 124.28 87.9475C122.675 89.8526 119.968 92.1587 118.263 93.0611C115.957 94.164 113.15 94.5651 109.239 94.3646C106.131 94.164 103.022 93.4622 102.421 92.9608C101.719 92.259 102.22 90.8552 104.125 88.148Z" fill="#E27100"/>
</svg>
