<svg width="176" height="178" viewBox="0 0 176 178" fill="none" xmlns="http://www.w3.org/2000/svg">
<path d="M70.3774 2.65592C72.5753 2.15563 75.2726 1.45524 76.3715 1.25512C77.4704 0.954955 82.3656 0.754842 87.3606 0.654785C92.8552 0.654785 99.6485 1.35518 104.843 2.4558C109.539 3.55642 116.532 5.55756 120.328 7.0584C124.124 8.4592 130.518 11.661 134.314 14.0624C138.11 16.4637 144.005 20.8662 147.301 23.7678C150.598 26.7695 155.493 32.0725 158.191 35.6746C160.888 39.1766 164.984 46.0805 167.381 51.0833C169.779 56.0861 172.676 64.0906 173.875 69.0935C175.673 76.8979 175.873 79.9996 175.473 92.1065C175.174 100.611 174.275 108.516 173.276 112.118C172.377 115.42 169.779 121.923 167.581 126.626C165.483 131.329 161.487 138.032 158.79 141.634C156.193 145.236 151.797 150.139 149.199 152.641C146.502 155.142 142.007 158.844 139.309 160.845C136.512 162.846 130.518 166.348 125.823 168.55C121.127 170.851 113.934 173.452 109.838 174.553C105.742 175.554 101.846 176.254 101.347 175.954C100.847 175.654 103.545 173.753 107.341 171.751C111.137 169.75 116.532 166.549 119.329 164.647C122.026 162.746 127.121 158.344 130.518 154.942C134.014 151.44 139.109 145.136 141.807 140.834C144.604 136.632 148.2 129.628 149.799 125.425C151.497 121.123 153.495 114.419 154.294 110.617C155.094 106.815 155.793 99.1104 155.793 93.6073C155.793 88.1042 155.194 80.2998 154.394 76.3976C153.595 72.3953 151.597 65.4914 149.999 61.0889C148.3 56.6865 144.704 49.6825 142.007 45.5802C139.409 41.4779 134.314 35.0742 130.718 31.4722C127.221 27.8702 121.427 22.9674 117.83 20.566C114.234 18.1647 108.14 14.7628 104.344 12.9617C100.548 11.1607 93.5545 8.75937 88.8591 7.65874C84.1638 6.65818 77.4704 5.4575 73.874 5.15733C70.2775 4.7571 67.1806 4.35688 66.8809 4.05671C66.5812 3.85659 68.1796 3.1562 70.3774 2.65592Z" fill="#830000"/>
<path d="M47.4002 10.7603C50.0976 9.35955 55.7919 6.95819 59.8879 5.45734C63.9838 3.9565 67.88 2.65576 68.3795 2.65576C68.879 2.65576 68.6792 3.05599 67.88 3.55627C67.0808 4.05655 66.881 4.55684 67.3805 4.55684C67.88 4.55684 71.0768 4.85701 74.3736 5.15718C77.6703 5.45734 84.1639 6.65802 88.8592 7.65859C93.5546 8.75921 100.548 11.1606 104.344 12.9616C108.14 14.7626 114.234 18.1645 117.831 20.5659C121.427 22.9672 127.221 27.87 130.718 31.472C134.314 35.0741 139.409 41.4777 142.007 45.58C144.704 49.6823 148.3 56.6863 149.999 61.0888C151.597 65.4913 153.595 72.3952 154.394 76.2974C155.194 80.2996 155.793 88.104 155.793 93.6071C155.793 99.1103 155.094 106.815 154.294 110.617C153.495 114.419 151.497 121.123 149.799 125.325C148.201 129.627 144.604 136.631 141.807 140.834C139.11 145.136 133.915 151.54 130.318 155.142C126.722 158.744 120.528 163.747 116.532 166.348C112.536 169.05 107.441 172.051 105.143 173.152C102.845 174.253 101.147 175.353 101.347 175.653C101.547 175.954 100.048 176.454 98.0501 176.854C96.0521 177.254 91.157 177.655 87.3607 177.655C83.5645 177.655 75.6723 176.554 69.878 175.253C64.0837 173.953 55.9917 171.351 51.8958 169.45C47.7998 167.549 42.2054 164.547 39.4081 162.646C36.7108 160.745 31.3161 156.343 27.5199 152.741C23.8236 149.139 18.8285 143.435 16.4309 140.133C14.1331 136.832 10.7365 131.328 9.03818 127.826C7.33986 124.425 4.74243 117.721 3.24391 112.818C0.846287 105.014 0.646484 102.512 0.646484 89.1046C0.646484 75.697 0.846287 73.1956 3.24391 65.2911C4.74243 60.4884 7.33986 53.7846 9.03818 50.3827C10.8364 46.8807 13.9333 41.5778 15.9314 38.5761C18.0293 35.5744 21.9254 30.7716 24.5229 27.9701C27.2202 25.2685 32.3152 20.766 35.9116 18.1645C39.508 15.463 44.603 12.1611 47.4002 10.7603Z" fill="#AF0000"/>
<path d="M60.6872 54.8855C61.3865 53.5848 63.3845 51.8838 65.1828 51.0834H65.0829C66.8811 50.2829 69.0789 49.6826 69.8781 49.5825C70.6773 49.5825 75.1729 50.9833 88.3598 55.8861L94.3539 53.6848C97.6507 52.3841 101.847 50.8833 103.545 50.1829C106.242 49.2823 107.441 49.3824 110.338 50.8833C112.236 51.7838 114.534 53.5848 115.333 54.8855C116.132 56.0862 118.03 61.5893 119.429 67.0924C120.828 72.5955 122.326 78.799 122.926 80.9002C123.725 84.4022 124.025 84.6023 127.821 84.6023C131.118 84.6023 131.917 85.0025 132.416 86.9036C132.716 88.1043 132.516 89.405 132.017 89.9053C131.517 90.3055 111.537 90.5056 44.4033 90.1054V87.604C44.4033 85.4028 44.9028 85.0025 52.3954 84.102L55.9919 70.5944C57.89 63.1902 60.0878 56.0862 60.6872 54.8855Z" fill="white"/>
<path d="M104.144 93.6074C105.143 93.6074 106.142 93.2072 106.342 92.8069C106.542 92.3067 107.541 92.0065 108.54 92.1065C109.639 92.2066 111.337 92.6068 112.436 93.0071C113.535 93.4073 115.933 94.5079 117.831 95.4084C119.729 96.3089 122.226 98.7103 123.525 100.611C124.724 102.512 126.122 105.714 126.422 107.615C126.822 109.516 126.622 112.918 126.023 115.12C125.423 117.521 123.425 120.623 121.227 122.824C118.83 125.225 115.833 127.026 113.135 127.627C110.338 128.294 107.607 128.294 104.943 127.627C102.746 127.126 99.5488 125.425 97.8505 123.824C96.0522 122.324 93.9543 119.822 93.1551 118.121C92.3559 116.42 91.5567 112.818 91.5567 110.117C91.4568 105.214 91.3569 105.114 84.9632 104.614V109.616C84.9632 112.318 84.2639 116.12 83.3648 117.821C82.4657 119.622 80.9672 121.923 80.068 123.024C79.1689 124.025 77.1709 125.525 75.4726 126.426C73.7743 127.226 70.1778 127.927 67.4805 127.927C64.6833 127.927 60.9869 127.226 59.1887 126.226C57.4904 125.325 54.793 122.924 53.1946 120.923C50.8969 117.821 50.4973 116.32 50.4973 110.517C50.4973 105.214 50.9968 103.113 52.5952 100.912C53.6941 99.4107 56.1917 97.1094 58.0898 95.8086C59.9879 94.608 63.0848 93.3072 64.983 92.907C66.8811 92.6068 70.1778 92.907 72.1758 93.5073C74.2738 94.1077 77.1709 95.6085 78.6694 96.9093C80.9672 98.7103 82.6655 99.1105 88.5596 99.1105C94.7535 99.1105 95.9523 98.8103 98.9494 96.3089C100.748 94.8081 103.045 93.6074 104.144 93.6074Z" fill="white"/>
</svg>
