<svg width="178" height="178" viewBox="0 0 178 178" fill="none" xmlns="http://www.w3.org/2000/svg">
<path d="M43.7512 12.5714C48.1618 10.068 54.6774 7.06381 58.2861 5.86214C61.8947 4.56034 65.7039 3.75923 66.8065 4.05965C67.9092 4.25992 73.1217 4.9609 78.3342 5.66187C83.5467 6.2627 90.7641 7.66464 94.3727 8.76617C97.9814 9.8677 104.297 12.4713 108.406 14.5742C112.516 16.6771 118.631 20.3823 121.939 22.8857C125.247 25.3892 130.058 29.595 132.564 32.1987C135.07 34.9024 139.481 40.7104 142.388 45.1166C145.295 49.5227 149.004 56.7327 150.708 61.1388C152.312 65.5449 154.317 72.4545 155.119 76.46C155.921 80.3654 156.522 87.976 156.522 93.1832C156.522 98.3904 155.82 106.201 154.918 110.507C154.016 114.713 152.011 121.623 150.407 125.728C148.904 129.834 145.295 136.643 142.589 140.749C139.882 144.855 134.569 151.364 130.86 155.169C127.051 158.874 121.037 163.981 117.428 166.285C113.819 168.688 108.807 171.592 106.101 172.693C103.495 173.895 101.59 175.197 101.891 175.798C102.191 176.399 99.5852 177.1 95.5756 177.4C91.8667 177.8 85.4513 177.7 81.3414 177.3C77.2316 176.999 70.4152 175.798 66.3053 174.696C62.1955 173.595 54.9781 170.891 50.2668 168.688C45.5555 166.485 38.6389 162.279 34.8298 159.475C31.0206 156.571 25.9083 152.065 23.4023 149.261C20.8963 146.557 16.6862 140.849 13.9797 136.744C11.2732 132.638 7.76478 125.828 6.16093 121.723C4.65732 117.617 2.6525 110.707 1.75034 106.502C0.848169 102.196 0.146484 94.3849 0.146484 89.1776C0.146484 83.9704 0.747928 76.3599 1.54985 72.4545C2.35178 68.4489 4.05587 62.2403 5.359 58.6353C6.66213 55.0303 9.76959 48.5213 12.1754 44.1152C15.3831 38.5074 19.4929 33.3002 26.2091 26.5909C32.8249 19.9817 38.1377 15.6757 43.7512 12.5714Z" fill="#E27100"/>
<path d="M67.9093 3.65895C68.4105 3.05812 71.0167 2.25701 73.8235 1.75631C76.53 1.25562 83.1458 0.754924 88.3584 0.654785C94.473 0.654785 101.089 1.25562 106.903 2.55742C111.915 3.65895 119.333 6.06228 123.443 7.86478C127.552 9.66728 133.667 12.8717 136.975 15.0748C140.283 17.2778 145.897 21.7841 149.505 25.1888C153.114 28.5935 158.326 34.6018 161.233 38.7075C164.04 42.8132 167.448 48.6213 168.852 51.6254C170.255 54.6296 172.26 60.0371 173.362 63.6421C174.465 67.2471 175.868 74.4571 176.47 79.6643C177.372 86.8743 177.372 91.4807 176.47 98.6907C175.868 103.898 174.465 111.108 173.362 114.713C172.26 118.318 169.754 124.426 167.849 128.232C165.844 132.037 162.035 138.346 159.128 142.151C156.322 145.956 151.31 151.564 148.002 154.468C144.694 157.472 138.779 161.878 134.97 164.282C131.161 166.685 124.746 169.889 120.937 171.291C117.127 172.793 111.313 174.596 108.106 175.397C104.397 176.298 102.192 176.398 101.891 175.798C101.59 175.197 103.495 173.895 106.101 172.693C108.807 171.592 113.819 168.688 117.428 166.284C121.037 163.981 127.051 158.874 130.86 155.169C134.569 151.364 139.882 144.855 142.589 140.749C145.295 136.643 148.904 129.834 150.407 125.728C152.011 121.622 154.016 114.713 154.918 110.407C155.82 106.201 156.522 98.3903 156.522 93.1831C156.522 87.9758 155.921 80.3653 155.119 76.3597C154.317 72.4543 152.312 65.5447 150.708 61.1386C149.004 56.7325 145.295 49.5225 142.388 45.1164C139.481 40.7103 135.071 34.9023 132.565 32.1985C130.058 29.5949 125.247 25.3891 121.939 22.8856C118.631 20.3821 112.516 16.677 108.407 14.5741C104.297 12.4712 97.6807 9.86756 93.8716 8.66589C90.0625 7.56436 83.0456 6.16242 78.3343 5.56159C73.623 5.06089 69.1122 4.5602 68.4105 4.5602C67.4081 4.5602 67.3078 4.25978 67.9093 3.65895Z" fill="#A95500"/>
<path d="M58.8871 59.9368C60.491 54.2289 61.9946 51.1246 63.5984 50.1232C64.8013 49.3221 66.7059 48.6211 67.8085 48.6211C68.9112 48.6211 73.2215 49.8228 77.3314 51.2247C83.2456 53.3276 86.0523 53.7282 90.3627 53.3276C93.3699 53.0272 97.8807 51.9257 100.387 50.724C102.893 49.6225 106.602 48.6211 108.707 48.6211C111.313 48.6211 113.117 49.3221 114.922 51.1246C116.325 52.5265 117.728 54.8297 118.029 56.3318C118.33 57.934 119.833 64.2427 121.237 70.4514C122.74 76.66 123.743 82.0675 123.442 82.6683C123.141 83.169 120.435 84.1704 117.428 84.8713C113.919 85.5723 103.995 86.073 90.3627 86.1731C74.8254 86.1731 66.9064 85.7726 61.8943 84.6711C58.1854 83.87 54.677 82.5682 54.1758 81.8672C53.6746 81.1662 53.8751 78.162 54.8775 74.3568C55.6794 70.9521 57.4837 64.443 58.8871 59.9368Z" fill="#FFFCF9"/>
<path d="M38.2375 81.6669C38.839 80.5654 41.1445 78.7629 43.5503 77.6614C45.8558 76.5598 48.3618 75.6586 49.0635 75.6586C49.7652 75.6586 50.2664 77.0605 50.2664 79.3637C50.1662 81.767 50.8679 83.7698 51.9705 84.8713C52.9729 85.7726 57.6842 87.1745 62.7965 88.0758C68.6105 89.0772 77.8326 89.678 88.8591 89.678C98.2817 89.678 109.91 89.0772 114.721 88.3762C121.036 87.5751 124.244 86.5737 125.647 85.1718C127.352 83.5695 127.652 82.3679 126.55 75.1579L129.757 75.959C131.562 76.3595 134.469 77.8616 136.273 79.1634C138.478 80.8658 139.38 82.3679 139.28 83.87C139.08 85.1718 137.476 87.1745 135.471 88.4763C133.566 89.7781 129.757 91.4805 126.951 92.2816C124.244 93.0827 117.027 94.3845 110.912 95.1856C104.898 95.9868 95.2745 96.6877 89.661 96.6877C83.9473 96.6877 74.9256 96.187 69.6129 95.6863C64.1999 95.0855 56.4813 93.6836 52.572 92.6822C48.5623 91.5806 43.9513 89.9784 42.2472 89.1773C40.6433 88.3762 38.839 86.774 38.2375 85.6725C37.5693 84.3373 37.5693 83.0021 38.2375 81.6669Z" fill="#FFFCF9"/>
<path d="M49.1638 108.404C49.1638 106.802 49.5647 104.699 50.2664 103.597C51.3691 101.695 52.0707 101.695 61.5936 102.396C67.2071 102.796 79.5367 103.197 88.8591 103.197C98.2817 103.197 110.311 102.896 115.724 102.496C124.344 101.795 125.647 101.895 127.051 103.497C128.254 104.699 128.554 106.201 128.053 109.005C127.752 111.008 126.85 113.912 126.048 115.514C125.347 117.016 122.941 119.92 120.836 122.023C118.631 124.026 114.521 126.629 111.714 127.731C108.807 128.832 104.296 129.734 101.69 129.734C97.7805 129.633 96.2769 129.033 93.6706 126.729C91.8663 125.027 89.7612 123.725 89.1598 123.725C88.4581 123.625 86.0523 125.027 83.847 126.83C80.1381 129.734 79.4365 129.934 73.823 129.433C70.1141 129.233 65.8037 128.031 62.7965 126.429C60.09 125.027 56.7821 122.824 55.6794 121.522C54.4765 120.32 52.572 117.416 51.3691 115.213C50.1662 113.01 49.264 109.906 49.1638 108.404Z" fill="#FFFCF9"/>
<path d="M61.0924 112.71C60.9922 111.709 61.7941 110.307 62.8968 109.806C63.8992 109.205 67.2071 108.705 70.0139 108.705C72.9208 108.705 76.9305 109.406 78.835 110.207C81.742 111.408 82.3435 112.209 82.3435 114.713C82.3435 116.816 81.5415 118.318 79.5367 119.72C77.9329 121.022 75.3266 121.823 73.0211 121.723C71.0163 121.723 68.0091 121.022 66.305 120.221C64.6009 119.419 62.7965 117.817 62.2953 116.716C61.7941 115.614 61.1927 113.812 61.0924 112.71Z" fill="#E27100"/>
<path d="M96.1767 113.111C96.5776 112.209 97.981 110.808 99.3844 110.107C100.788 109.406 104.396 108.805 107.404 108.705C110.712 108.705 113.819 109.305 115.122 110.207C116.425 111.008 117.428 112.41 117.428 113.211C117.428 114.012 115.924 116.315 114.02 118.218C111.012 121.322 110.01 121.723 105.7 121.723C103.093 121.723 100.186 121.122 99.2841 120.421C98.382 119.72 97.1791 118.218 96.5777 117.016C95.876 115.714 95.6755 114.012 96.1767 113.111Z" fill="#E27100"/>
<path d="M63.9997 113.511C63.8994 113.211 64.7014 112.61 65.804 112.41C66.9067 112.109 68.711 111.909 69.8136 111.809C70.9163 111.809 73.5225 112.21 75.5273 112.71C77.6324 113.311 79.3365 114.212 79.3365 114.713C79.3365 115.214 78.1336 116.415 76.63 117.417C74.7254 118.518 72.9211 118.819 70.816 118.318C69.1119 117.918 67.0069 116.816 66.0045 115.915C65.0021 115.014 64.0999 113.912 63.9997 113.511Z" fill="#FFFCF9"/>
<path d="M99.1842 115.314C99.0839 114.513 100.287 113.411 101.891 112.911C103.595 112.31 106.201 111.809 107.905 111.809C109.609 111.809 111.614 112.21 112.416 112.71C113.719 113.612 113.519 114.112 111.213 116.215C109.609 117.617 107.304 118.719 105.9 118.719C104.497 118.719 102.492 118.218 101.389 117.717C100.287 117.217 99.2844 116.115 99.1842 115.314Z" fill="#FFFCF9"/>
</svg>
