<svg width="178" height="178" viewBox="0 0 178 178" fill="none" xmlns="http://www.w3.org/2000/svg">
<path d="M66.8686 3.06407C67.17 2.86329 69.8824 2.26097 72.8962 1.75904C75.91 1.25711 82.6408 0.755172 87.6639 0.654785C92.7873 0.654785 100.322 1.15672 104.24 1.95981C108.258 2.76291 113.783 4.16832 116.596 5.0718C119.309 6.07567 124.935 8.48495 129.053 10.4927C133.072 12.5004 139.903 16.9174 144.122 20.2302C148.342 23.6433 154.369 29.7669 157.685 33.7824C160.899 37.8982 165.52 45.2265 167.931 50.2458C170.343 55.2651 173.256 62.6938 174.26 66.8096C175.366 70.9255 176.471 78.1533 176.872 82.8715C177.375 88.0916 177.174 94.9179 176.37 100.439C175.767 105.458 173.959 113.088 172.452 117.505C171.046 121.922 167.731 129.15 165.32 133.466C162.808 137.883 157.383 145.011 153.264 149.428C149.145 153.845 143.017 159.366 139.702 161.675C136.387 164.084 130.962 167.297 127.647 169.003C124.332 170.609 118.706 172.918 115.089 174.023C111.473 175.026 106.852 176.231 104.742 176.633C102.532 176.934 101.025 176.833 101.025 176.231C101.025 175.629 102.934 174.424 105.244 173.42C107.655 172.416 112.779 169.505 116.596 167.096C120.414 164.586 126.743 159.467 130.56 155.551C134.277 151.737 139.602 145.212 142.314 141.096C145.027 136.98 148.643 129.953 150.351 125.536C152.059 121.119 154.168 113.891 154.972 109.474C156.077 103.752 156.379 97.7287 155.977 88.8947C155.575 78.9564 154.972 74.5394 152.762 67.8135C151.255 63.0953 148.241 55.8675 146.031 51.7516C143.821 47.6358 140.104 41.7129 137.693 38.7013C135.382 35.6897 131.063 30.9716 128.049 28.2611C125.035 25.5507 120.816 22.1375 118.606 20.6317C116.395 19.1259 111.372 16.2147 107.555 14.3074C103.737 12.4 97.6094 9.89036 93.9928 8.78611C90.3763 7.68185 82.9422 6.27644 77.4169 5.57373C71.8916 4.97141 67.17 4.16832 66.8686 3.96755C66.5672 3.76677 66.5672 3.36523 66.8686 3.06407Z" fill="#9900BF"/>
<path d="M45.2699 11.4967C48.5851 9.68976 54.0099 7.0797 57.3251 5.87506C60.8412 4.57004 64.5583 3.76694 66.3665 4.0681C68.0744 4.36926 73.1978 5.07197 77.9194 5.5739C82.6411 6.17622 89.6733 7.58164 93.4908 8.68589C97.3083 9.89053 103.738 12.4002 107.555 14.3075C111.373 16.2149 116.396 19.1261 118.606 20.6319C120.816 22.1377 125.035 25.5509 128.049 28.2613C131.063 30.9717 135.383 35.6899 137.693 38.7015C140.104 41.7131 143.821 47.6359 146.031 51.7518C148.242 55.8676 151.255 63.0955 152.762 67.8136C154.972 74.5396 155.575 78.9566 155.977 88.8949C156.379 97.7289 156.077 103.752 154.972 109.474C154.169 113.891 152.059 121.119 150.351 125.536C148.643 129.953 145.027 136.98 142.314 141.096C139.602 145.212 134.278 151.737 130.561 155.552C126.743 159.467 120.414 164.586 116.597 167.096C112.779 169.505 107.656 172.417 105.245 173.42C102.934 174.424 100.824 175.83 100.724 176.432C100.423 177.436 97.0069 177.737 87.3627 177.637C77.7185 177.536 72.3941 176.934 66.3665 175.328C61.9463 174.224 53.809 171.011 48.2837 168.301C42.2561 165.289 35.2239 160.772 30.8037 156.957C26.6848 153.443 20.8581 147.42 17.9448 143.606C14.931 139.791 10.7116 132.965 8.60198 128.548C6.49232 124.131 3.67943 116.903 2.37345 112.486C0.364251 105.559 0.0628704 102.246 0.16333 88.8949C0.16333 74.9411 0.464711 72.4314 2.97621 64.3001C4.48311 59.2808 7.49692 51.8522 9.8075 47.7363C12.0176 43.6205 15.2323 38.4003 16.9402 36.1918C18.648 33.9833 21.8627 30.1686 24.0728 27.8597C26.3834 25.4505 30.7032 21.5354 33.717 19.1261C36.7308 16.8172 41.9547 13.4041 45.2699 11.4967Z" fill="#CC00FF"/>
<path d="M60.1379 56.0685C61.3434 53.1572 62.9507 50.3464 63.8549 49.7441C64.6586 49.2422 66.4668 48.8406 67.8733 48.8406C69.2797 48.7402 72.394 49.7441 74.9055 50.8484C77.417 52.053 82.3395 53.1572 85.9561 53.4584C91.381 53.86 93.6915 53.4584 99.5182 51.3503C103.336 49.8445 107.655 48.7402 109.062 48.7402C110.468 48.7402 112.578 49.5433 113.884 50.5472C115.692 51.8522 116.998 55.165 119.61 65.806C121.519 73.2346 123.126 80.362 123.126 81.6671C123.126 83.6748 122.423 83.976 115.893 85.0802C111.774 85.7829 99.8196 86.3852 88.9699 86.3852C77.1156 86.3852 66.7682 85.8833 62.8503 85.0802C59.2337 84.3775 55.5167 83.2733 54.5121 82.5705C52.7038 81.3659 52.8043 80.9644 55.3158 71.3272C56.8227 65.806 59.0328 58.8793 60.1379 56.0685Z" fill="#FFFCF9"/>
<path d="M39.0412 80.9644C40.2468 79.5589 42.5573 77.9528 44.2652 77.2501C45.8725 76.5473 47.7813 75.945 48.384 75.8446C49.0872 75.8446 49.5896 77.0493 49.4891 78.6555C49.4891 80.1613 49.5895 82.169 49.5895 83.1729C49.69 84.0763 50.6946 85.3814 51.7997 85.8833C52.9047 86.3852 57.325 87.5899 61.5443 88.393C66.9691 89.3968 75.5083 89.8988 89.4722 89.7984C100.523 89.7984 112.779 89.2965 116.697 88.5937C120.615 87.891 124.533 86.6864 125.537 85.8833C126.944 84.7791 127.245 83.2733 127.044 80.0609C126.642 75.945 126.743 75.8446 129.154 76.3466C130.56 76.7481 132.971 77.752 134.579 78.6555C136.186 79.5589 137.994 81.1651 138.597 82.169C139.401 83.3736 139.401 84.3775 138.597 85.6825C137.994 86.586 136.186 88.1922 134.579 89.0957C132.971 90.0995 128.25 91.7057 124.131 92.81C120.012 93.8139 110.971 95.3197 104.039 95.922C96.7053 96.6247 86.8602 96.9258 80.4308 96.5243C74.4032 96.2231 65.5627 95.2193 60.8411 94.5166C56.1195 93.7135 49.9914 92.3081 47.279 91.4046C44.4661 90.4007 41.3518 89.0957 40.2468 88.393C39.1417 87.6903 37.9362 86.1845 37.5343 85.1806C37.1325 83.976 37.6348 82.4702 39.0412 80.9644Z" fill="#FFFCF9"/>
<path d="M49.1877 109.976C48.7859 108.069 49.0872 105.459 49.69 104.154C50.8955 101.845 51.1969 101.845 59.1333 102.648C63.654 103.049 76.6133 103.451 87.9653 103.451C99.3173 103.451 112.277 103.15 116.797 102.748C124.734 101.945 125.236 102.046 126.642 104.254C127.948 106.061 127.948 107.366 127.145 110.98C126.542 113.69 124.533 117.304 122.323 119.914C120.313 122.324 116.496 125.335 113.784 126.64C111.172 127.945 106.45 129.351 103.336 129.652C97.9109 130.254 97.2076 130.053 93.4906 127.142C91.2805 125.335 88.769 124.03 87.9653 124.03C87.1616 124.03 84.851 125.536 82.9423 127.243C79.6271 130.154 79.1248 130.355 73.3986 129.752C69.6816 129.351 65.1609 128.046 61.8457 126.339C57.8273 124.231 55.4162 122.123 53.0052 118.509C51.1969 115.698 49.4891 111.883 49.1877 109.976Z" fill="#FFFCF9"/>
<path d="M60.2386 114.795C59.7363 113.088 60.2386 111.984 61.8459 110.779C63.4533 109.474 65.8643 108.972 69.9832 108.972C73.2984 108.972 77.1159 109.574 78.6228 110.378C80.2301 111.08 81.8375 112.586 82.2393 113.59C82.7416 114.895 82.4403 116.3 81.1343 118.007C80.1297 119.412 78.1205 121.119 76.8145 121.822C75.4081 122.524 72.997 122.826 70.8874 122.424C68.9786 122.123 65.8643 120.717 64.1565 119.412C62.3482 118.107 60.54 115.999 60.2386 114.795Z" fill="#CC00FF"/>
<path d="M95.6005 113.188C96.2033 112.285 97.8107 110.88 99.1166 110.277C100.423 109.574 104.341 108.972 107.756 108.972C112.076 108.972 114.587 109.474 115.592 110.478C116.396 111.281 117.099 112.887 117.099 113.992C117.099 115.096 115.994 117.103 114.587 118.509C113.181 119.914 110.368 121.521 108.259 122.123C105.245 123.026 103.838 122.926 100.724 121.621C98.7148 120.717 96.4042 118.81 95.701 117.405C94.7969 115.497 94.7969 114.393 95.6005 113.188Z" fill="#CC00FF"/>
<path d="M64.6588 114.594C64.4579 113.791 65.2616 112.887 66.3666 112.687C67.4717 112.385 70.1841 112.385 72.3942 112.687C74.6044 112.988 77.0154 113.69 77.8191 114.393C78.9241 115.297 78.7232 115.798 76.8145 117.304C75.5085 118.308 73.5998 119.111 72.6956 119.011C71.691 119.011 69.5814 118.308 67.8735 117.505C66.1657 116.702 64.7593 115.397 64.6588 114.594Z" fill="#FFFCF9"/>
<path d="M98.8152 114.995C98.7148 114.493 100.121 113.59 102.03 113.088C103.939 112.486 107.153 112.285 109.062 112.586C110.971 112.787 112.779 113.188 113.081 113.49C113.382 113.791 112.679 114.895 111.574 115.999C110.469 117.104 108.258 118.308 106.551 118.609C104.642 118.91 102.733 118.509 101.327 117.605C100.021 116.702 98.9157 115.598 98.8152 114.995Z" fill="#FFFCF9"/>
</svg>
