<svg width="178" height="178" viewBox="0 0 178 178" fill="none" xmlns="http://www.w3.org/2000/svg">
<path d="M48.3889 10.24C50.9015 8.93681 55.8263 6.83159 59.4444 5.62861C63.0626 4.32539 66.6808 3.22266 67.4848 3.22266C68.7914 3.22266 68.7914 3.3229 67.4848 4.22514C66.3793 4.92688 67.9874 5.22762 72.8116 5.22762C76.5303 5.22762 82.7616 5.92936 86.5808 6.73134C90.4 7.53333 97.1338 9.5383 101.456 11.2425C105.677 12.8465 112.712 16.4554 117.034 19.2624C121.255 21.9691 127.587 27.0817 131.104 30.5904C134.522 33.9989 139.647 40.2143 142.361 44.3244C145.075 48.4346 148.793 55.452 150.502 59.8629C152.311 64.2738 154.522 71.6922 155.527 76.4039C156.834 82.8198 157.035 87.8322 156.633 96.9548C156.331 103.571 155.326 111.691 154.422 114.999C153.517 118.308 151.708 123.721 150.301 127.029C148.994 130.337 146.381 135.45 144.572 138.357C142.864 141.365 139.044 146.578 136.331 149.886C133.517 153.294 128.29 158.507 124.773 161.414C121.154 164.322 114.521 168.632 109.998 170.938C105.476 173.244 101.958 175.449 102.26 175.95C102.461 176.351 101.958 176.452 101.154 176.151C100.35 175.85 99.6464 176.051 99.6464 176.652C99.6464 177.254 95.5257 177.655 89.3949 177.655C82.7616 177.655 75.7262 176.853 69.9975 175.549C64.8717 174.447 56.7308 171.64 51.404 169.033C46.1778 166.527 38.5394 161.916 34.4187 158.808C30.298 155.7 24.4687 150.187 21.4535 146.578C18.4384 142.969 14.2172 137.154 12.1066 133.545C9.99597 129.936 7.18183 124.122 5.77476 120.513C4.4682 116.904 2.65911 110.188 1.75456 105.476C0.850019 100.764 0.146484 93.3458 0.146484 88.9349C0.146484 84.524 0.649009 78.2083 1.15153 74.9001C1.75456 71.592 3.16163 65.9781 4.36769 62.3691C5.47325 58.7602 7.78486 53.1463 9.49345 49.8381C11.1015 46.5299 14.4182 41.1165 16.7298 37.8083C19.1419 34.5001 24.1672 28.786 27.8859 25.177C31.7051 21.5681 36.8308 17.2574 39.3434 15.5532C41.8561 13.849 45.8763 11.443 48.3889 10.24Z" fill="#0065C2"/>
<path d="M68.3892 3.82434C69.2938 3.1226 72.5099 2.01987 75.5251 1.41838C78.5402 0.816891 85.5756 0.516146 91.1033 0.716643C97.3347 0.917139 104.772 2.01987 110.702 3.52359C115.928 4.82682 123.868 7.73402 128.29 9.93948C132.712 12.1449 139.848 16.7564 144.17 20.1648C148.391 23.473 154.723 29.7886 158.04 33.9991C161.457 38.3097 166.181 45.8284 168.593 50.8408C171.005 55.8532 173.919 63.873 175.126 68.8855C176.633 75.3013 177.236 81.1157 177.136 88.9351C177.136 95.1505 176.432 103.271 175.528 107.481C174.623 111.591 172.512 118.408 170.904 122.518C169.196 126.628 165.779 133.245 163.266 137.054C160.653 140.864 156.331 146.478 153.517 149.485C150.703 152.392 145.879 156.803 142.863 159.109C139.848 161.415 134.421 165.024 130.803 166.928C127.185 168.933 120.853 171.64 116.732 173.043C112.611 174.347 106.883 175.75 99.1437 176.552L108.692 171.64C113.918 168.933 121.154 164.322 124.773 161.415C128.29 158.507 133.516 153.294 136.331 149.886C139.044 146.578 142.863 141.365 144.572 138.357C146.381 135.45 148.994 130.338 150.301 127.029C151.708 123.721 153.517 118.308 154.422 115C155.326 111.691 156.331 103.571 156.633 96.955C157.035 87.8324 156.834 82.82 155.527 76.4041C154.522 71.6924 152.311 64.274 150.502 59.8631C148.793 55.4522 145.075 48.4348 142.361 44.3246C139.647 40.2144 134.522 33.9991 131.104 30.5906C127.587 27.0819 121.255 21.9693 116.933 19.2626C112.712 16.4556 105.677 12.8467 101.455 11.2427C97.1336 9.53849 90.3998 7.53352 86.5806 6.73154C82.7614 5.92955 76.6306 5.22781 73.113 5.22781C67.5852 5.22781 66.8816 5.02732 68.3892 3.82434Z" fill="#004C91"/>
<path d="M38.0371 72.6951C40.1477 71.4921 44.369 69.5874 47.3841 68.4846C51.0023 67.1814 55.6255 66.4797 60.9523 66.4797C66.279 66.3794 72.4099 67.1814 89.0937 71.2916L99.1442 68.6851C107.185 66.6802 111.004 66.2792 118.24 66.5799C126.482 66.8807 128.09 67.2816 143.366 74.9005L143.165 79.9129C143.065 83.6221 141.859 87.1308 138.643 93.3462C136.231 97.9576 132.612 103.572 130.602 105.677C127.989 108.183 125.074 109.987 121.557 110.99C118.642 111.792 115.426 112.494 114.521 112.494C113.516 112.494 110.3 111.291 107.486 109.887C104.571 108.383 100.149 105.476 97.6366 103.471C95.124 101.366 92.1088 99.1606 90.9028 98.5591C89.4957 97.8574 87.8876 97.7571 86.8826 98.3586C85.8775 98.8598 82.8624 101.166 80.0482 103.471C77.3346 105.877 72.5104 108.985 69.4952 110.288C64.3695 112.694 63.5654 112.794 58.4397 111.591C55.4245 110.99 51.4043 109.286 49.6957 107.982C47.8866 106.579 44.6705 102.87 42.6604 99.7621C40.6503 96.5541 37.6351 90.5392 36.027 86.4291C34.419 82.3189 33.4139 78.0082 33.7154 76.9055C33.9164 75.8027 35.9265 73.898 38.0371 72.6951Z" fill="white"/>
<path d="M51.2032 84.6244C51.1027 83.9227 52.1078 82.9202 53.5148 82.419C54.8214 81.9177 57.937 81.5168 60.4497 81.4165C63.5653 81.4165 65.9774 82.018 68.3896 83.622C70.2992 84.9252 72.8118 87.1307 73.9173 88.7346C75.6259 90.9401 75.8269 91.6418 74.7214 92.7446C73.9173 93.4463 70.7012 93.9475 66.48 93.9475C59.7461 93.9475 59.4446 93.8473 55.4244 89.9376C53.2133 87.7321 51.3037 85.3262 51.2032 84.6244Z" fill="#0065C2"/>
<path d="M105.074 87.5316C107.084 85.1257 109.697 82.82 111.004 82.3187C112.21 81.8175 115.828 81.5168 118.944 81.7172C122.059 81.8175 125.275 82.419 125.979 83.1207C127.084 84.1232 126.783 85.0254 124.471 87.9326C122.964 89.8374 120.25 92.1431 118.441 93.0453C116.23 94.148 113.416 94.549 109.496 94.3485C106.38 94.148 103.265 93.4463 102.662 92.9451C101.757 92.2433 102.461 90.7396 105.074 87.5316Z" fill="#0065C2"/>
</svg>
