<svg width="177" height="178" viewBox="0 0 177 178" fill="none" xmlns="http://www.w3.org/2000/svg">
<path d="M66.1342 4.02316C67.2374 3.32141 70.8476 2.31892 74.157 1.61718C77.667 0.815184 84.3861 0.514436 90.2026 0.714935C95.7183 0.915433 104.042 2.01817 108.755 3.22116C113.469 4.32391 121.792 7.53188 127.308 10.2386C133.425 13.2461 140.245 17.5568 144.758 21.4665C148.869 24.9752 154.686 30.8899 157.594 34.7997C160.603 38.6091 165.015 45.8271 167.422 50.8395C169.929 55.852 172.837 63.8719 174.041 68.8844C175.445 75.2001 176.147 81.215 176.147 88.9342C176.147 96.6534 175.445 102.568 174.041 108.683C172.837 113.596 170.731 120.312 169.327 123.721C167.923 127.229 164.313 133.645 161.405 138.056C158.497 142.467 153.182 148.783 149.672 152.191C146.262 155.5 140.445 160.211 136.835 162.617C133.225 165.023 127.609 168.231 124.299 169.735C120.99 171.139 115.775 173.144 112.767 173.946C109.758 174.848 105.245 175.85 98.2254 176.652L105.747 172.843C109.858 170.838 115.274 167.73 117.781 166.026C120.288 164.322 124.901 160.512 128.211 157.505C131.42 154.497 136.133 149.385 138.54 146.076C141.047 142.768 144.557 137.154 146.362 133.545C148.167 129.936 150.875 123.219 152.48 118.508C155.087 110.588 155.288 108.884 155.288 93.4454C155.288 78.3078 155.087 76.2026 152.58 68.0824C151.076 63.2704 148.568 56.7542 146.964 53.5463C145.359 50.4385 142.05 45.1253 139.643 41.8171C137.236 38.5089 132.523 33.1957 129.213 29.9877C126.004 26.6795 119.887 21.8675 115.775 19.1608C111.664 16.4541 104.744 12.8451 100.532 11.2411C96.2197 9.53687 89.5006 7.53188 85.6898 6.72989C81.879 5.92789 75.3605 5.22615 71.4493 5.22615C65.4323 5.1259 64.4294 4.9254 66.1342 4.02316Z" fill="#008301"/>
<path d="M40.5613 14.6495C44.673 12.043 51.6929 8.33382 56.1055 6.62958C60.518 4.82509 64.8302 3.32135 65.6325 3.32135C66.9362 3.22111 66.9362 3.32135 65.6325 4.2236C64.6297 4.92534 66.3345 5.22609 71.449 5.22609C75.3602 5.22609 81.8787 5.92783 85.6895 6.72983C89.5003 7.53182 96.2194 9.53681 100.532 11.241C104.744 12.845 111.663 16.454 115.775 19.1607C119.887 21.8675 126.004 26.6794 129.213 29.9876C132.523 33.1956 137.236 38.5088 139.643 41.817C142.05 45.1253 145.359 50.4385 146.964 53.5462C148.568 56.7542 151.075 63.2704 152.58 68.0823C155.087 76.2025 155.287 78.3078 155.287 93.4454C155.287 108.884 155.087 110.588 152.479 118.508C150.875 123.219 148.167 129.936 146.362 133.545C144.557 137.154 141.047 142.768 138.54 146.076C136.133 149.384 131.419 154.497 128.21 157.505C124.901 160.512 118.884 165.124 114.772 167.83C110.66 170.437 105.746 173.144 104.042 173.645C102.237 174.246 100.933 175.048 101.234 175.65C101.535 176.251 101.033 176.452 100.231 176.151C99.4285 175.85 98.7265 176.051 98.7265 176.652C98.7265 177.254 94.6149 177.655 88.4975 177.655C80.9761 177.655 75.4604 176.953 68.1396 175.148C62.624 173.845 54.0998 170.738 49.0855 168.231C44.0713 165.825 36.6502 161.114 32.5385 157.805C28.4268 154.497 23.4126 149.785 21.4069 147.379C19.5015 145.074 16.4929 141.064 14.7881 138.558C13.0832 136.051 10.3755 131.239 8.57042 127.731C6.86557 124.322 4.25816 117.605 2.75389 112.793C0.447339 104.974 0.146484 102.368 0.146484 89.4354C0.146484 77.606 0.547624 73.3955 2.35275 66.8793C3.55617 62.4684 6.06329 55.4509 8.06899 51.3407C10.0747 47.2305 13.5847 41.1153 15.9915 37.8071C18.2981 34.4989 23.1117 29.0854 26.6217 25.6769C30.1317 22.2685 36.4496 17.3562 40.5613 14.6495Z" fill="#00AF01"/>
<path d="M37.2515 72.6936C39.3575 71.4907 43.5695 69.5859 46.578 68.4832C50.1883 67.1799 54.8014 66.4782 60.1165 66.4782C65.4316 66.3779 71.549 67.1799 88.1963 71.2902L98.2248 68.6837C106.248 66.6787 110.058 66.2777 117.279 66.5784C125.502 66.8792 127.107 67.2802 142.35 74.8991L142.15 79.9116C142.049 83.6208 140.846 87.1295 137.637 93.345C135.23 97.9564 131.62 103.57 129.614 105.676C127.007 108.182 124.098 109.986 120.588 110.989C117.68 111.791 114.471 112.493 113.568 112.493C112.565 112.493 109.356 111.29 106.548 109.886C103.64 108.382 99.2276 105.475 96.7205 103.47C94.2134 101.365 91.2048 99.1594 90.0014 98.5579C88.5974 97.8562 86.9929 97.7559 85.99 98.3574C84.9872 98.8587 81.9786 101.164 79.1706 103.47C76.4629 105.876 71.6493 108.884 68.6407 110.287C64.529 112.192 62.2225 112.593 59.4145 112.092C57.3085 111.791 54.0994 110.788 52.3946 109.886C50.5894 108.984 48.0823 107.28 46.7786 106.077C45.4749 104.974 42.8675 101.465 41.0624 98.4577C39.157 95.4502 36.4493 89.736 35.0453 85.9265C33.6413 82.1171 32.6384 78.0069 32.9393 76.9041C33.2401 75.8014 35.1456 73.8966 37.2515 72.6936Z" fill="white"/>
<path d="M50.3887 84.6235C50.2885 83.9218 51.2913 82.9193 52.6953 82.418C53.999 81.9168 57.1078 81.5158 59.615 81.4155C62.7238 81.4155 65.1306 82.017 67.5375 83.621C69.4429 84.9242 71.95 87.1297 73.0531 88.7337C74.758 90.9392 74.9585 91.6409 73.8554 92.7437C73.0531 93.4454 69.844 93.9467 65.632 93.9467C58.913 93.9467 58.6121 93.8464 54.6007 89.9367C52.3944 87.7312 50.489 85.3252 50.3887 84.6235Z" fill="#00AF01"/>
<path d="M104.141 87.5307C106.147 85.1247 108.755 82.819 110.058 82.3178C111.262 81.8165 114.872 81.5158 117.981 81.7163C121.09 81.8165 124.299 82.418 125.001 83.1198C126.104 84.1223 125.803 85.0245 123.496 87.9317C121.992 89.8365 119.284 92.1422 117.479 93.0444C115.273 94.1472 112.465 94.5482 108.554 94.3477C105.445 94.1472 102.336 93.4454 101.735 92.9442C100.832 92.2424 101.534 90.7387 104.141 87.5307Z" fill="#00AF01"/>
</svg>
