<svg width="177" height="178" viewBox="0 0 177 178" fill="none" xmlns="http://www.w3.org/2000/svg">
<path d="M67.4554 4.05836C67.7551 3.05731 70.1527 2.25647 74.2486 1.65584C77.6452 1.15531 83.2396 0.75489 86.7361 0.654785C90.1327 0.654785 96.4264 1.05521 100.722 1.65584C104.918 2.15636 112.011 3.85815 116.406 5.35973C120.802 6.86131 127.995 10.1648 132.29 12.5673C136.686 15.0699 143.779 20.4756 148.175 24.5799C152.57 28.6843 158.065 34.7907 160.462 38.0942C162.76 41.3976 166.356 47.7043 168.454 52.1089C170.452 56.5135 173.05 63.5209 174.149 67.6252C175.647 73.4313 176.146 78.2364 176.146 89.1479C176.146 100.36 175.647 104.764 173.949 111.171C172.75 115.576 170.352 122.383 168.554 126.187C166.756 129.991 163.759 135.497 161.861 138.199C160.063 141.002 156.466 145.607 153.969 148.61C151.471 151.513 145.777 156.619 141.381 159.922C136.986 163.226 130.193 167.43 126.396 169.332C122.6 171.134 115.807 173.537 111.411 174.738C107.016 175.939 102.72 176.64 101.921 176.239C100.922 175.839 103.12 174.237 108.514 171.434C112.91 169.132 119.204 165.228 122.4 162.725C125.597 160.223 130.193 156.018 132.69 153.215C135.088 150.512 138.784 145.707 140.882 142.704C142.88 139.701 145.777 134.996 147.076 132.193C148.474 129.49 150.872 123.384 152.37 118.679C154.368 112.272 155.267 107.367 155.667 98.6579C155.967 91.5504 155.667 84.0425 154.868 79.1373C154.169 74.7327 152.37 67.5251 150.772 63.1205C149.174 58.7159 145.677 51.5083 142.98 47.1036C140.382 42.699 135.088 35.8918 131.291 31.9877C127.495 28.0836 120.802 22.4777 116.406 19.6748C112.011 16.7717 104.918 13.1679 100.722 11.5663C96.4264 9.86447 89.7331 7.86237 85.9369 7.06152C82.1407 6.26068 76.2466 5.55994 72.9499 5.55994C68.0548 5.55994 67.0558 5.25963 67.4554 4.05836Z" fill="#9900BF"/>
<path d="M46.4764 11.366C50.872 9.06359 56.6662 6.46086 59.4634 5.4598C62.2606 4.45875 65.2576 3.65791 66.2566 3.65791C67.1557 3.5578 67.7551 3.95822 67.4554 4.55886C67.1557 5.15949 69.2536 5.55991 72.9499 5.55991C76.2466 5.55991 82.1407 6.26065 85.9369 7.06149C89.7331 7.86233 96.4264 9.86444 100.722 11.5662C104.918 13.1679 112.011 16.7717 116.406 19.6748C120.802 22.4777 127.495 28.0836 131.291 31.9877C135.088 35.8918 140.382 42.699 142.98 47.1036C145.677 51.5082 149.174 58.7158 150.772 63.1204C152.37 67.5251 154.169 74.7327 154.868 79.1373C155.667 84.0424 155.967 91.5503 155.667 98.6578C155.267 107.367 154.368 112.272 152.37 118.679C150.872 123.384 148.474 129.39 147.076 132.193C145.777 134.896 142.88 139.701 140.882 142.704C138.784 145.707 135.088 150.412 132.69 153.215C130.193 155.918 125.597 160.223 122.4 162.725C119.204 165.228 113.01 169.032 108.714 171.234C104.418 173.436 101.222 175.539 101.621 175.939C102.121 176.34 100.622 176.94 98.4244 177.341C96.2266 177.741 89.4334 177.741 83.4394 177.441C76.9459 177.14 69.4534 176.039 65.2576 174.838C61.2616 173.637 55.1677 171.434 51.7711 169.933C48.2746 168.431 42.7802 165.328 39.4835 163.126C36.1868 161.023 30.8921 156.719 27.6953 153.716C24.3986 150.713 19.7033 145.507 17.3057 142.204C14.8082 138.9 11.4116 133.494 9.7133 130.191C8.1149 126.888 5.71731 121.282 4.51851 117.678C3.31971 114.074 1.72131 107.567 1.02201 103.163C0.222813 98.1573 -0.076887 91.0498 0.322712 84.1426C0.622412 77.6357 1.72131 70.0277 3.02001 65.6231C4.11891 61.5188 6.9161 54.5114 9.014 50.1068C11.2118 45.7021 15.4076 38.895 18.3047 35.091C21.2018 31.1869 26.996 25.2807 31.0919 21.777C35.1878 18.3734 42.0809 13.6684 46.4764 11.366Z" fill="#CC00FF"/>
<path d="M37.685 72.9308C39.7829 71.7295 43.9787 69.8275 46.9757 68.7264C50.5721 67.425 55.1674 66.7243 60.4621 66.7243C65.7568 66.6242 71.8507 67.425 88.4341 71.5293L98.4241 68.9266C106.416 66.9245 110.212 66.5241 117.405 66.8244C125.597 67.1247 127.195 67.5251 142.38 75.1331L142.18 80.1384C142.08 83.8423 140.882 87.346 137.685 93.5525C135.287 98.1573 131.691 103.763 129.693 105.865C127.095 108.368 124.198 110.17 120.702 111.171C117.805 111.972 114.608 112.673 113.709 112.673C112.71 112.673 109.513 111.471 106.716 110.07C103.819 108.568 99.4231 105.665 96.9256 103.663C94.4281 101.561 91.4311 99.3586 90.2323 98.758C88.8337 98.0572 87.2353 97.9571 86.2363 98.5578C85.2373 99.0583 82.2403 101.361 79.4431 103.663C76.7458 106.066 71.9506 109.069 68.9536 110.47C64.8577 112.372 62.56 112.773 59.7628 112.272C57.6649 111.972 54.4682 110.971 52.7699 110.07C50.9717 109.169 48.4742 107.467 47.1755 106.266C45.8768 105.165 43.2794 101.661 41.4812 98.6579C39.5831 95.6547 36.8858 89.9487 35.4872 86.1447C34.0886 82.3407 33.0896 78.2364 33.3893 77.1352C33.689 76.0341 35.5871 74.1321 37.685 72.9308Z" fill="white"/>
<path d="M50.7725 84.8435C50.6726 84.1428 51.6716 83.1417 53.0702 82.6412C54.3689 82.1407 57.4658 81.7402 59.9633 81.6401C63.0602 81.6401 65.4578 82.2408 67.8554 83.8425C69.7535 85.1438 72.251 87.3461 73.3499 88.9478C75.0482 91.1501 75.248 91.8509 74.1491 92.952C73.3499 93.6528 70.1531 94.1533 65.9573 94.1533C59.264 94.1533 58.9643 94.0532 54.9683 90.1491C52.7705 87.9468 50.8724 85.5442 50.7725 84.8435Z" fill="#CC00FF"/>
<path d="M104.319 87.7466C106.317 85.344 108.914 83.0416 110.213 82.5411C111.412 82.0406 115.008 81.7402 118.105 81.9405C121.202 82.0406 124.399 82.6412 125.098 83.3419C126.197 84.343 125.897 85.2439 123.6 88.147C122.101 90.049 119.404 92.3514 117.606 93.2523C115.408 94.3535 112.611 94.7539 108.714 94.5537C105.618 94.3535 102.521 93.6528 101.921 93.1522C101.022 92.4515 101.721 90.9499 104.319 87.7466Z" fill="#CC00FF"/>
</svg>
