<svg width="177" height="178" viewBox="0 0 177 178" fill="none" xmlns="http://www.w3.org/2000/svg">
<path d="M66.2093 4.02316C67.3137 3.32141 70.9281 2.31892 74.2413 1.61718C77.7552 0.815184 84.482 0.514436 90.3052 0.714935C95.8271 0.915433 104.16 2.01817 108.879 3.22116C113.598 4.32391 121.931 7.53188 127.453 10.2386C133.577 13.2461 140.404 17.5568 144.922 21.4665C149.039 24.9752 154.862 30.9902 157.773 34.7997C160.785 38.7094 165.203 45.8271 167.613 50.8395C170.022 55.852 172.934 63.6714 174.139 68.3831C175.544 74.4984 176.147 80.3128 176.147 88.9342C176.147 97.5557 175.544 103.37 174.139 109.285C173.034 113.796 170.926 120.312 169.52 123.821C168.115 127.229 164.5 133.645 161.589 138.056C158.677 142.467 153.356 148.783 149.842 152.191C146.428 155.5 140.605 160.211 136.991 162.617C133.376 165.023 127.754 168.231 124.441 169.735C121.128 171.139 115.907 173.144 112.895 173.946C109.883 174.848 105.365 175.85 98.3371 176.652L105.867 172.843C109.983 170.838 115.606 167.53 118.417 165.625C121.128 163.82 127.051 158.607 131.469 154.096C136.79 148.783 141.107 143.169 144.32 137.555C146.93 132.843 150.545 124.723 152.252 119.51C155.364 110.388 155.464 109.285 155.565 93.9467C155.565 80.0121 155.264 76.8041 153.256 69.8869C151.95 65.4759 149.541 58.9597 147.834 55.3508C146.228 51.7418 142.914 46.1278 140.505 42.8196C138.196 39.5114 132.674 33.3962 128.356 29.286C123.939 25.0755 117.212 19.7623 113.397 17.5568C109.582 15.2511 103.156 12.1433 99.3411 10.7399C95.5259 9.23612 89.3012 7.43163 85.486 6.62964C81.7712 5.82764 75.4461 5.22615 71.5305 5.22615C65.5065 5.1259 64.5025 4.9254 66.2093 4.02316Z" fill="#830000"/>
<path d="M40.6074 14.6495C44.7238 12.043 51.7517 8.33382 56.1693 6.62958C60.5869 4.82509 64.904 3.32135 65.7072 3.32135C67.0124 3.22111 67.0124 3.32135 65.7072 4.2236C64.7032 4.92534 66.41 5.22609 71.5304 5.22609C75.446 5.22609 81.7711 5.82758 85.5863 6.62958C89.3011 7.43157 95.5258 9.23606 99.341 10.7398C103.156 12.1433 109.582 15.251 113.397 17.5567C117.212 19.7622 123.939 25.0754 128.356 29.2859C132.674 33.3961 138.196 39.5113 140.505 42.8195C142.914 46.1278 146.227 51.7417 147.834 55.3507C149.541 58.9597 151.95 65.4759 153.255 69.8868C155.263 76.804 155.565 80.012 155.565 93.9466C155.464 109.285 155.364 110.388 152.251 119.51C150.545 124.723 146.93 132.843 144.32 137.555C141.007 143.47 136.89 148.683 130.967 154.597C126.248 159.309 119.019 165.324 114.903 167.83C110.787 170.437 105.867 173.043 104.16 173.645C102.353 174.146 101.048 175.048 101.349 175.65C101.65 176.251 101.148 176.452 100.345 176.151C99.5418 175.85 98.839 176.051 98.839 176.652C98.839 177.254 94.7226 177.655 88.5983 177.655C80.9679 177.655 75.5464 176.953 68.2172 175.148C62.6953 173.745 54.1613 170.738 49.1413 168.332C44.1214 165.926 36.6918 161.214 32.5755 157.906C28.4591 154.497 22.7363 148.983 19.8248 145.475C17.0136 141.966 12.596 135.249 10.086 130.538C7.67643 125.826 4.36326 118.006 2.85727 112.994C0.447682 104.974 0.146484 102.368 0.146484 89.4354C0.146484 77.606 0.548082 73.3955 2.35527 66.8793C3.56006 62.4684 6.07004 55.4509 8.07803 51.3407C10.086 47.2305 13.6 41.1153 16.0096 37.8071C18.3188 34.4989 23.1379 29.0854 26.6519 25.6769C30.1659 22.2685 36.491 17.3562 40.6074 14.6495Z" fill="#AF0000"/>
<path d="M37.2943 72.6936C39.4026 71.4907 43.6194 69.5859 46.6314 68.4832C50.2458 67.1799 54.8641 66.4782 60.1853 66.4782C65.5065 66.3779 71.6308 67.1799 88.2971 71.2902L98.337 68.6837C106.369 66.6787 110.184 66.2777 117.413 66.5784C125.646 66.8792 127.252 67.2802 142.513 74.8991L142.312 79.9116C142.212 83.6208 141.007 87.1295 137.794 93.345C135.384 97.9564 131.77 103.57 129.762 105.676C127.152 108.182 124.24 109.986 120.726 110.989C117.815 111.791 114.602 112.493 113.698 112.493C112.694 112.493 109.481 111.29 106.67 109.886C103.759 108.382 99.341 105.475 96.8311 103.47C94.3211 101.365 91.3091 99.1594 90.1043 98.5579C88.6987 97.8562 87.0923 97.7559 86.0883 98.3574C85.0843 98.8587 82.0724 101.164 79.2612 103.47C76.5504 105.876 71.7312 108.984 68.7192 110.287C63.5989 112.693 62.7957 112.793 57.6753 111.59C54.6633 110.989 50.6474 109.285 48.9406 107.981C47.1334 106.578 43.9206 102.869 41.9126 99.7609C39.9046 96.553 36.8927 90.538 35.2863 86.4278C33.6799 82.3176 32.6759 78.0069 32.9771 76.9041C33.1779 75.8014 35.1859 73.8966 37.2943 72.6936Z" fill="white"/>
<path d="M50.4464 84.6235C50.346 83.9218 51.35 82.9193 52.7556 82.418C54.0607 81.9168 57.1731 81.5158 59.6831 81.4155C62.7955 81.4155 65.2051 82.017 67.6146 83.621C69.5222 84.9242 72.0322 87.1297 73.1366 88.7337C74.8434 90.9392 75.0442 91.6409 73.9398 92.7437C73.1366 93.4454 69.9238 93.9467 65.7071 93.9467C58.9803 93.9467 58.6791 93.8464 54.6631 89.9367C52.4544 87.7312 50.5468 85.3252 50.4464 84.6235Z" fill="#AF0000"/>
<path d="M104.26 87.5307C106.268 85.1247 108.879 82.819 110.184 82.3178C111.389 81.8165 115.003 81.5158 118.116 81.7163C121.228 81.8165 124.441 82.418 125.143 83.1198C126.248 84.1223 125.947 85.0245 123.637 87.9317C122.131 89.8365 119.421 92.1422 117.614 93.0444C115.405 94.1472 112.594 94.5482 108.678 94.3477C105.566 94.1472 102.453 93.4454 101.851 92.9442C100.947 92.2424 101.65 90.7387 104.26 87.5307Z" fill="#AF0000"/>
</svg>
