<svg width="178" height="178" viewBox="0 0 178 178" fill="none" xmlns="http://www.w3.org/2000/svg">
<path d="M68.1773 3.60506C69.3814 2.80252 73.8967 1.69904 78.2113 1.19745H78.1109C82.4256 0.695869 89.1484 0.495235 92.9613 0.796186C96.7742 0.996819 102.494 1.69904 105.504 2.20062C108.514 2.80252 113.33 3.90601 116.04 4.80886C118.749 5.71171 124.267 7.91868 128.08 9.92502C131.893 11.831 137.813 15.3421 141.125 17.6494C144.436 19.9567 149.653 24.5713 152.764 27.7814C155.774 31.0919 160.29 36.6093 162.698 40.2207C165.106 43.8321 168.517 50.1521 170.324 54.2651C172.029 58.378 174.337 65.4002 175.341 69.8142C176.645 75.6325 177.147 81.3506 177.147 90.3791C177.046 99.6083 176.444 105.025 174.839 110.944C173.735 115.358 170.524 123.484 167.815 129.001C165.106 134.519 160.29 142.042 157.279 145.754C154.169 149.566 148.65 155.083 144.937 158.093C141.125 161.203 134.703 165.416 130.589 167.523C126.475 169.73 120.354 172.338 117.043 173.441C113.732 174.545 108.614 175.849 105.805 176.351C102.895 176.752 100.487 176.953 100.487 176.652C100.487 176.351 104.4 174.144 109.216 171.636C113.932 169.128 120.856 164.614 124.468 161.604C128.08 158.595 133.599 152.876 136.91 149.064C140.422 144.851 144.837 137.929 147.647 132.011C150.356 126.493 153.266 119.27 154.169 115.96C155.072 112.649 156.075 104.323 156.376 97.4013C156.778 87.8712 156.577 82.8554 155.273 76.3348C154.269 71.6199 151.961 64.1964 150.055 59.7825C148.148 55.3685 145.138 49.2492 143.332 46.34C141.626 43.3305 136.71 37.2112 132.596 32.8976C128.482 28.4836 122.562 23.2672 119.551 21.1605C116.541 19.1542 111.324 16.0443 108.012 14.4393C104.701 12.7339 99.082 10.4266 95.4698 9.32312C91.8575 8.11931 86.0378 6.71488 82.4256 6.11298C78.8133 5.61139 73.696 5.10981 70.8865 5.10981C66.0701 5.10981 65.9698 5.10981 68.1773 3.60506Z" fill="#9900BF"/>
<path d="M43.7944 12.8341C47.7077 10.5268 54.2298 7.41701 58.3438 5.91225C62.4577 4.4075 66.5717 3.2037 67.3744 3.2037C68.6788 3.10338 68.6788 3.2037 67.3744 4.10655C66.2706 4.80877 67.274 5.10972 70.8863 5.10972C73.5955 5.10972 78.8132 5.6113 82.4254 6.11289C86.0377 6.71479 91.8574 8.11923 95.4696 9.32303C99.0819 10.4265 104.701 12.7338 108.012 14.4392C111.323 16.0443 116.541 19.1541 119.551 21.1604C122.561 23.2671 128.482 28.4835 132.595 32.8975C136.709 37.2111 141.626 43.3304 143.332 46.3399C145.138 49.2491 148.148 55.3685 150.055 59.7824C151.961 64.1963 154.269 71.6198 155.272 76.3347C156.577 82.8553 156.777 87.8711 156.376 97.4012C156.075 104.323 155.072 112.649 154.169 115.96C153.266 119.27 150.356 126.493 147.647 132.011C144.837 137.929 140.422 144.851 136.91 149.064C133.599 152.876 128.08 158.594 124.468 161.604C120.856 164.614 113.932 169.128 109.216 171.636C104.4 174.144 100.487 176.451 100.487 176.952C100.487 177.354 95.1686 177.655 88.6465 177.655C80.4186 177.655 74.4985 177.053 68.5785 175.648C64.0632 174.545 57.541 172.438 54.1295 171.034C50.6176 169.529 44.6975 166.419 40.7842 163.911C36.871 161.403 30.8506 156.588 27.439 153.278C23.9271 149.867 19.1108 144.35 16.7026 141.039C14.2944 137.729 10.3812 130.907 8.07336 125.992C5.66519 120.775 3.05635 113.151 2.05295 107.934C0.949206 102.919 0.146484 94.6927 0.146484 89.3759C0.146484 84.0591 0.949206 75.8331 2.05295 70.8173C3.05635 65.8014 5.66519 57.9767 7.87268 53.2618C9.97982 48.5469 13.291 42.4276 15.1975 39.719C17.0036 36.9102 20.1142 32.8975 22.0206 30.6905C24.0274 28.4835 28.041 24.4709 31.1516 21.8626C34.2621 19.1541 39.8812 15.1414 43.7944 12.8341Z" fill="#CC00FF"/>
<path d="M66.3709 59.2807C66.9729 56.1709 68.177 53.8636 70.2841 52.0579C72.0903 50.4528 74.5988 49.249 76.2042 49.249C77.7093 49.249 81.1209 50.1519 83.9304 51.155C88.8471 53.0611 89.0478 53.0611 93.4627 51.155C95.9712 50.0516 99.0818 49.249 100.487 49.249C101.891 49.249 104.5 50.1519 106.206 51.2554C108.313 52.4592 109.818 54.4655 110.42 56.5722C110.922 58.2775 111.624 61.6883 112.527 68.3092H65.3675V66.1023C65.4678 64.7981 65.8692 61.7886 66.3709 59.2807Z" fill="white"/>
<path d="M63.3607 80.1466C63.3607 78.8425 63.6617 76.8362 63.9627 75.6324L64.5648 73.3251H113.531V75.6324C113.531 76.8362 113.731 78.8425 114.534 82.3536H63.3607V80.1466Z" fill="white"/>
<path d="M48.711 88.172C48.41 86.7675 48.8114 85.2628 49.9151 84.1593C50.8182 83.1561 52.2229 82.4539 52.9253 82.4539C53.728 82.4539 55.7348 83.4571 57.5409 84.6609C60.7518 86.8678 61.7552 86.9682 114.032 87.4697L119.35 84.6609C123.565 82.4539 125.07 82.1529 126.374 83.0558C127.277 83.6577 128.18 85.1625 128.381 86.5669C128.582 87.9713 127.779 89.777 126.374 91.1815C125.07 92.4856 122.26 94.191 120.053 94.9935C116.742 96.2976 111.022 96.4982 57.6413 95.9967L53.5273 93.1878C51.2195 91.683 49.012 89.3758 48.711 88.172Z" fill="white"/>
<path d="M59.5478 108.637C60.0495 107.834 61.4542 106.931 62.6583 106.43C63.8624 105.928 67.7756 105.527 71.3879 105.527C75.0001 105.527 79.2144 105.928 80.9202 106.43C82.5256 107.032 84.4321 108.536 85.1345 109.941C85.8369 111.345 86.4389 113.151 86.4389 114.054C86.4389 114.957 87.342 115.558 88.9474 115.558C91.0546 115.558 91.4559 115.057 91.3556 112.75C91.3556 111.145 92.2586 109.138 93.5631 108.035C95.0682 106.53 97.4763 105.828 101.791 105.627C105.203 105.426 109.718 105.527 111.725 105.828C113.832 106.229 116.441 107.433 117.544 108.536C118.648 109.539 119.551 111.646 119.551 113.051C119.551 115.257 119.953 115.558 123.765 115.759C126.976 115.96 128.08 116.461 128.281 117.765C128.481 119.17 127.779 119.571 124.066 119.571C119.852 119.571 119.551 119.772 119.551 122.079C119.551 123.383 118.447 125.69 117.043 127.095C115.136 129.001 113.631 129.502 109.818 129.502C107.109 129.502 103.196 128.7 100.988 127.697C98.7808 126.694 95.9712 124.487 94.6668 122.681C92.961 120.273 91.6566 119.471 89.1481 119.471C86.7399 119.471 85.0341 120.374 82.4253 123.183C80.5188 125.189 77.4083 127.396 75.6022 128.198C73.7961 128.901 70.1838 129.502 67.575 129.502C64.8658 129.502 61.9559 128.8 60.8522 127.897C59.7484 127.095 58.5443 124.988 58.2433 123.183C57.842 120.273 57.3403 119.972 53.2263 119.571C50.2161 119.17 48.8114 118.568 48.8114 117.565C48.8114 116.461 50.2161 115.859 53.3267 115.558C57.2399 115.057 57.842 114.656 58.143 112.549C58.3437 111.145 58.9457 109.339 59.5478 108.637Z" fill="white"/>
</svg>
