<svg width="178" height="178" viewBox="0 0 178 178" fill="none" xmlns="http://www.w3.org/2000/svg">
<path d="M46.2526 11.4753C49.5603 9.67352 55.1734 7.17102 58.7818 5.86972C62.3902 4.56842 66.1991 3.76762 67.3016 4.06792C68.4042 4.36822 73.1151 5.06892 77.8261 5.56942C82.5371 6.06992 89.6536 7.47132 93.663 8.57242C97.5721 9.67352 104.388 12.2761 108.598 14.4783C112.908 16.5804 119.122 20.3842 122.43 22.8867C125.738 25.2891 130.649 29.7936 133.355 32.6965C136.062 35.6995 140.472 41.5053 143.178 45.6094C145.885 49.7135 149.493 56.7205 151.197 61.1249C152.801 65.5293 154.805 72.4361 155.607 76.34C156.409 80.344 157.01 87.9516 157.01 93.1568C157.01 98.362 156.409 105.97 155.607 109.974C154.805 113.877 152.801 120.784 151.097 125.189C149.393 129.593 145.684 136.8 142.777 141.205C139.871 145.609 134.558 152.116 130.95 155.619C127.341 159.223 121.227 164.128 117.418 166.63C113.509 169.133 108.497 172.136 106.192 173.237C103.887 174.338 102.183 175.539 102.383 176.04C102.684 176.44 100.278 177.041 97.1711 177.341C93.9637 177.741 87.5487 177.741 82.8378 177.441C78.1268 177.041 71.6116 176.04 68.3039 175.239C64.9963 174.338 59.3832 172.536 55.7748 171.135C52.1664 169.733 46.5533 166.93 43.2456 164.928C39.9379 162.926 34.7258 159.223 31.7188 156.72C28.7118 154.218 23.7001 149.013 20.5929 145.209C17.4857 141.305 13.2759 135.299 11.2712 131.695C9.36678 128.092 6.76071 122.486 5.65815 119.183C4.45535 115.88 2.85162 109.873 2.04975 105.97C1.24788 101.966 0.646484 94.358 0.646484 89.1528C0.646484 83.9476 1.24788 76.34 2.04975 72.4361C2.85162 68.4322 4.45535 62.4262 5.65815 59.1229C6.76071 55.8196 9.36678 50.214 11.3714 46.6104C13.2759 43.0068 16.2829 38.3021 17.9868 36.0999C19.6908 33.8977 22.8983 30.0939 25.1034 27.7916C27.4088 25.3892 31.7188 21.4853 34.7258 19.0829C37.7328 16.7806 42.9449 13.3772 46.2526 11.4753Z" fill="#E27100"/>
<path d="M68.8049 3.26692C69.6068 2.96662 72.3131 2.26592 74.8189 1.76542C77.3247 1.16482 83.1383 0.764421 87.8492 0.664322C92.5602 0.564222 100.178 1.26492 104.889 2.16582C109.6 3.06672 117.017 5.16882 121.427 6.87051C125.838 8.57221 133.255 12.4761 137.966 15.6793C142.677 18.7824 149.392 24.4881 153.001 28.1918C156.609 31.9956 161.922 38.9025 164.828 43.6072C167.735 48.3119 171.344 56.1197 172.947 61.1247C174.551 66.1296 176.355 74.4379 177.057 79.6431C177.859 86.7502 177.859 91.555 176.957 98.6621C176.355 103.867 174.952 111.075 173.849 114.678C172.747 118.282 170.141 124.588 168.036 128.692C165.931 132.796 162.222 138.902 159.717 142.206C157.311 145.509 152.6 150.614 149.392 153.617C146.085 156.62 140.271 161.124 136.462 163.627C132.654 166.029 126.539 169.333 122.931 170.734C119.322 172.236 113.409 174.137 109.6 175.138C105.891 176.039 102.684 176.44 102.383 175.939C102.183 175.539 103.887 174.338 106.192 173.237C108.497 172.135 113.509 169.132 117.418 166.63C121.227 164.127 127.341 159.223 130.95 155.619C134.558 152.115 139.87 145.609 142.777 141.205C145.684 136.8 149.392 129.593 151.096 125.189C152.8 120.784 154.805 113.877 155.607 109.973C156.409 105.969 157.01 98.3618 157.01 93.1566C157.01 87.9514 156.409 80.3438 155.607 76.3398C154.805 72.4359 152.8 65.529 151.197 61.1247C149.493 56.7203 145.884 49.7133 143.178 45.6092C140.472 41.5051 136.061 35.6993 133.355 32.6963C130.649 29.7934 125.737 25.2889 122.43 22.8865C119.122 20.384 112.807 16.5802 108.397 14.378C103.987 12.0757 96.0684 9.27291 90.8562 7.97161C85.6441 6.57021 79.3294 5.46912 76.8236 5.46912C74.3177 5.36902 71.2105 5.06872 69.8072 4.56822C68.003 4.06772 67.7023 3.66732 68.8049 3.26692Z" fill="#A95500"/>
<path d="M61.588 54.9186C62.2897 53.6173 64.2943 51.9156 66.0985 51.1148H65.9983C67.8025 50.314 70.0076 49.7134 70.8095 49.6133C71.6114 49.6133 76.1219 51.0147 89.3526 55.9196L95.3666 53.7174C98.6743 52.4161 102.884 50.9146 104.588 50.2139C107.294 49.313 108.497 49.4131 111.404 50.9146C113.308 51.8155 115.614 53.6173 116.416 54.9186C117.218 56.1198 119.122 61.6253 120.525 67.1308C121.928 72.6363 123.432 78.8424 124.033 80.9445C124.835 84.448 125.136 84.6482 128.945 84.6482C132.252 84.6482 133.054 85.0486 133.556 86.9505C133.856 88.1517 133.656 89.453 133.155 89.9535C132.653 90.3539 112.607 90.5541 45.25 90.1537V87.6512C45.25 85.449 45.7512 85.0486 53.2687 84.1477L56.8771 70.6343C58.7815 63.2269 60.9866 56.1198 61.588 54.9186Z" fill="white"/>
<path d="M54.5717 99.463C56.1754 97.7613 59.1824 95.459 61.3876 94.5581C63.5927 93.5571 66.5997 92.6562 68.2034 92.6562C69.7069 92.6562 72.6137 93.3569 74.7186 94.2578C76.7233 95.0586 79.2291 96.5601 80.3317 97.461C81.7349 98.7623 84.0403 99.1627 89.6533 99.1627C96.0683 99.1627 97.3713 98.8624 99.2757 96.8604C100.479 95.5591 103.185 94.0576 105.19 93.5571C107.194 92.9565 110.602 92.7563 112.707 93.1567C114.812 93.5571 117.819 94.6582 119.523 95.6592C121.227 96.5601 123.532 98.9625 124.735 100.764C125.938 102.666 127.141 105.769 127.542 107.671C127.942 109.573 127.742 112.977 127.141 115.179C126.539 117.581 124.535 120.684 122.329 122.886C119.924 125.289 116.917 127.091 114.211 127.691C111.404 128.359 108.664 128.359 105.991 127.691C103.786 127.191 100.579 125.489 98.8748 123.987C97.0706 122.386 94.9657 119.883 94.1638 118.182C93.362 116.48 92.5601 112.977 92.5601 110.174C92.4599 105.269 92.3596 105.169 85.9447 104.668V109.673C85.9447 112.476 85.2431 116.18 84.341 117.982C83.4389 119.683 81.9354 121.985 81.0333 123.087C80.1312 124.088 78.1265 125.589 76.4226 126.49C74.7186 127.291 71.1102 127.991 68.4039 127.991C65.5974 127.991 61.8887 127.291 60.0845 126.29C58.3806 125.389 55.7745 123.187 54.3712 121.485C52.968 119.683 51.5647 116.38 51.264 114.178C50.8631 111.976 50.8631 108.472 51.264 106.47C51.5647 104.368 53.0682 101.265 54.5717 99.463Z" fill="white"/>
</svg>
