<svg width="177" height="178" viewBox="0 0 177 178" fill="none" xmlns="http://www.w3.org/2000/svg">
<path d="M48.757 9.62377C52.8663 7.61982 58.0781 5.31529 60.2832 4.7141C62.4882 4.01272 65.1943 3.61193 66.2968 3.81233C67.3993 4.01272 72.6112 4.7141 77.823 5.41548C83.0349 6.01667 90.2513 7.41943 93.8595 8.5216C97.4677 9.62377 103.782 12.2289 107.891 14.333C112.001 16.4372 118.115 20.1445 121.422 22.6494C124.73 25.1544 129.541 29.3626 132.046 31.9678C134.552 34.6731 138.962 40.4845 141.869 44.8932C144.775 49.3019 148.484 56.5161 150.187 60.9248C151.791 65.3335 153.796 71.8463 154.598 75.4534C155.299 79.0605 156.001 86.5753 156.001 92.2865C156.001 97.8976 155.399 105.813 154.598 109.721C153.796 113.729 151.791 120.642 150.087 125.051C148.383 129.46 144.775 136.474 142.069 140.582C139.363 144.69 134.051 151.203 130.342 155.01C126.534 158.717 120.52 163.827 116.912 166.132C113.304 168.537 108.292 171.442 105.586 172.545C102.98 173.747 101.076 174.949 101.276 175.35C101.577 175.851 100.074 176.452 98.069 176.853C96.0645 177.254 91.6544 177.655 88.3469 177.655C85.0394 177.655 78.4244 176.953 73.6135 176.152C68.7023 175.35 61.2854 173.246 56.9756 171.643C52.7661 169.939 46.151 166.733 42.2422 164.429C38.3333 162.124 31.7182 156.814 27.3082 152.605C22.9984 148.497 17.5861 142.385 15.3811 139.079C13.0759 135.772 9.5679 129.46 7.56334 125.051C5.55878 120.642 3.05309 113.829 2.05081 110.021C0.647623 104.711 0.146484 99.5007 0.146484 88.479C0.246712 76.3552 0.547395 72.6479 2.45172 65.9346C3.75468 61.526 6.66129 54.1114 8.96653 49.5023C11.2718 44.8932 15.8822 37.679 19.1898 33.4707C22.4973 29.2624 28.8116 23.0502 33.2217 19.6435C37.6317 16.2368 44.6476 11.7279 48.757 9.62377Z" fill="#0065C2"/>
<path d="M67.1993 3.61209C67.6002 3.11111 70.3063 2.30953 73.1127 1.60815C76.1195 0.906765 83.3359 0.505976 90.3519 0.70637C98.8712 1.00696 104.785 1.70834 110.397 3.3115C114.807 4.51387 121.122 6.71821 124.429 8.22117C127.737 9.72413 133.149 12.73 136.457 14.9344C139.764 17.0385 145.277 21.5474 148.885 24.8539C152.393 28.1604 157.204 33.5711 159.509 36.8776C161.915 40.1841 165.322 45.9955 167.227 49.9032C169.231 53.7107 171.536 59.1214 172.338 61.9269C173.24 64.6322 174.543 69.4417 175.044 72.4476C175.646 75.4535 176.147 82.8681 176.147 88.9802C176.147 96.7956 175.546 102.607 174.042 109.02C172.839 113.929 170.133 121.845 167.928 126.554C165.723 131.263 161.714 137.977 159.008 141.584C156.302 145.191 152.192 149.9 149.787 152.205C147.382 154.409 143.673 157.615 141.468 159.319C139.263 161.022 134.552 164.028 130.944 165.932C127.336 167.936 121.924 170.441 118.917 171.643C115.91 172.845 110.798 174.448 107.691 175.25C103.883 176.152 101.678 176.252 101.377 175.651C101.076 175.05 102.981 173.747 105.687 172.545C108.293 171.443 113.304 168.537 116.912 166.132C120.52 163.828 126.534 158.717 130.343 155.01C134.051 151.203 139.363 144.69 142.069 140.582C144.776 136.474 148.384 129.46 150.088 125.051C151.792 120.643 153.796 113.729 154.598 109.721C155.4 105.813 156.001 97.8977 156.001 92.1865C156.001 86.5754 155.299 79.0606 154.598 75.4535C153.796 71.8464 151.792 65.3336 150.188 60.9249C148.484 56.5163 144.776 49.3021 141.869 44.8934C138.962 40.4847 134.552 34.6732 132.047 31.9679C129.541 29.3628 124.73 25.1545 121.423 22.6496C118.115 20.1446 112.001 16.4373 107.892 14.3332C103.782 12.2291 97.1674 9.62393 93.3587 8.42156C89.5501 7.31939 82.5341 5.91663 77.8234 5.31544C73.1127 4.81446 68.7027 4.31347 67.9009 4.31347C67.099 4.31347 66.7984 4.01288 67.1993 3.61209Z" fill="#004C91"/>
<path d="M60.0822 55.7149C61.285 52.8092 62.8886 50.0036 63.7907 49.4025C64.5925 48.9015 66.3966 48.5007 67.7998 48.5007C69.203 48.4005 72.31 49.4025 74.8157 50.5046C77.3214 51.707 82.2326 52.8092 85.8408 53.1098C91.2531 53.5106 93.5583 53.1098 99.3715 51.0056C103.18 49.5027 107.49 48.3003 108.893 48.3003C110.296 48.3003 112.602 49.4025 114.005 50.6048C115.909 52.3082 117.012 54.9133 118.315 60.9252C119.317 65.3338 120.72 71.2455 121.522 73.9508C122.324 76.7563 122.925 79.9626 122.925 81.2652C122.925 83.2691 122.123 83.5697 115.709 84.6719C111.599 85.3733 99.6722 85.9745 88.8476 85.9745C77.0207 85.9745 66.6973 85.4735 62.7884 84.6719C59.1802 83.9705 55.4718 82.8684 54.4695 82.167C52.6654 80.9646 52.7656 80.5638 55.2713 70.9449C56.7747 65.434 58.9797 58.5204 60.0822 55.7149Z" fill="#FFFCF9"/>
<path d="M39.4353 79.7622C40.4376 78.8605 42.5424 77.5579 44.2463 76.8565C45.8499 76.1551 47.7542 75.554 48.3556 75.4538C49.0572 75.4538 49.5583 76.6561 49.4581 78.2593C49.4581 79.7622 49.5583 81.7662 49.5583 82.7682C49.6586 83.6699 50.6608 84.9725 51.7633 85.4735C52.8658 86.0747 57.2759 87.1768 61.4854 87.9784C66.7975 88.9804 75.6175 89.4814 89.3488 89.4814C103.08 89.4814 111.8 88.9804 116.911 87.9784C121.021 87.1768 125.03 85.9745 125.832 85.2731C126.633 84.4715 127.034 82.4676 126.834 79.662C126.433 75.554 126.533 75.4538 128.939 75.9547C130.342 76.3555 132.747 77.3575 134.351 78.2593C135.955 79.1611 137.759 80.7642 138.36 81.7662C139.162 82.9686 139.162 83.9705 138.36 85.2731C137.759 86.1749 135.955 87.778 134.351 88.6798C132.747 89.6818 128.037 91.2849 123.927 92.3871C119.818 93.4893 110.597 94.892 103.381 95.4932C95.8636 96.1946 85.941 96.4952 79.8271 96.0944C74.0139 95.6936 66.0959 94.9922 62.2873 94.391C58.3784 93.7899 52.4649 92.4873 48.957 91.3851C45.5492 90.3832 41.6403 88.78 40.2371 87.9784C38.6335 86.9764 37.7314 85.5737 37.7314 83.9705C37.7314 82.5678 38.5333 80.7642 39.4353 79.7622Z" fill="#FFFCF9"/>
<path d="M49.1574 109.521C48.7565 107.617 49.0572 104.912 49.7588 103.609C50.7611 101.605 51.4627 101.405 55.0709 101.906C57.3761 102.206 68.7018 102.808 80.3283 103.108C94.2599 103.609 105.285 103.409 112.902 102.607C124.428 101.405 124.428 101.405 126.233 103.709C127.536 105.413 127.836 106.816 127.335 109.02C127.034 110.723 125.932 113.629 124.93 115.533C123.927 117.436 121.823 120.242 120.219 121.645C118.715 123.148 115.508 125.252 113.103 126.454C110.798 127.657 106.287 128.859 103.08 129.16C97.7679 129.761 97.0663 129.56 93.3579 126.655C91.1529 124.851 88.6472 123.548 87.8453 123.548C87.0435 123.548 84.7383 125.051 82.834 126.755C79.5264 129.66 79.0253 129.861 73.3123 129.26C69.6039 128.859 65.0936 127.556 61.7861 125.853C57.777 123.749 55.3715 121.645 52.9661 118.038C51.162 115.232 49.4581 111.425 49.1574 109.521Z" fill="#FFFCF9"/>
<path d="M59.6817 113.128C59.5815 112.326 60.5838 110.923 61.8867 110.022C63.3901 109.12 66.4972 108.519 70.0052 108.519C73.2125 108.519 77.0211 109.12 78.5245 109.921C80.1282 110.623 81.6316 112.025 82.0325 112.927C82.5336 113.829 82.233 115.633 81.5314 117.035C80.93 118.438 78.8252 120.242 77.0211 121.043C74.9163 122.045 72.5109 122.346 70.0052 121.845C67.6999 121.444 65.094 119.941 62.9892 117.837C61.2854 116.033 59.6817 113.929 59.6817 113.128Z" fill="#0065C2"/>
<path d="M95.463 112.727C96.0644 111.825 97.668 110.422 98.971 109.821C100.274 109.12 104.183 108.519 107.591 108.519C111.9 108.519 114.406 109.02 115.408 110.022C116.21 110.823 116.912 112.426 116.912 113.528C116.912 114.631 115.809 116.635 114.406 118.037C113.003 119.44 110.197 121.043 108.092 121.644C105.085 122.546 103.682 122.446 100.575 121.143C98.5701 120.242 96.2649 118.338 95.5633 116.935C94.6612 115.031 94.6612 113.929 95.463 112.727Z" fill="#0065C2"/>
<path d="M64.5933 114.13C64.3929 113.328 65.1947 112.426 66.2972 112.226C67.3997 111.925 70.1058 111.925 72.3108 112.226C74.5159 112.526 76.9213 113.228 77.7231 113.929C78.8257 114.831 78.6252 115.332 76.7209 116.835C75.4179 117.837 73.5136 118.638 72.6115 118.538C71.6093 118.538 69.5045 117.837 67.8006 117.035C66.0967 116.234 64.6935 114.931 64.5933 114.13Z" fill="#FFFCF9"/>
<path d="M98.8712 114.13C99.1719 113.729 100.976 113.027 102.88 112.526C104.785 112.025 107.691 111.825 109.395 112.126C111.099 112.426 112.602 112.827 112.903 113.128C113.204 113.328 112.502 114.43 111.4 115.532C110.297 116.634 108.092 117.737 106.388 118.137C104.183 118.538 102.68 118.137 100.876 116.735C99.4726 115.633 98.5705 114.43 98.8712 114.13Z" fill="#FFFCF9"/>
</svg>
