<svg width="177" height="178" viewBox="0 0 177 178" fill="none" xmlns="http://www.w3.org/2000/svg">
<path d="M70.6233 2.66534C72.8289 2.16508 75.5357 1.46473 76.6385 1.26462C77.7413 0.96447 82.4532 0.764368 87.1651 0.664317C91.8771 0.564266 99.2958 1.26462 103.707 2.16508C108.118 3.06554 115.537 5.16662 120.249 6.86749C124.961 8.56836 131.979 12.0701 135.788 14.5714C139.598 17.1728 145.413 21.6751 148.721 24.6766C151.929 27.6781 156.641 32.7807 159.147 36.0824C161.654 39.3841 165.564 46.0875 167.97 51.0901C170.275 56.0926 172.982 62.9962 173.885 66.598C174.787 70.1999 175.89 76.7032 176.391 81.1054C176.792 85.5077 176.692 92.9115 176.291 97.6139C175.789 102.316 174.687 108.82 173.784 112.121C172.982 115.423 170.075 122.627 167.368 128.129C164.661 133.632 159.949 141.136 156.942 144.838C153.834 148.64 148.32 154.143 144.611 157.244C140.801 160.246 133.282 165.048 127.768 167.75C122.254 170.451 114.334 173.553 110.223 174.553C106.113 175.554 102.203 176.254 101.702 175.954C101.201 175.654 103.908 173.753 107.717 171.752C111.527 169.751 116.94 166.549 119.748 164.648C122.454 162.847 127.467 158.545 130.775 155.243C134.084 151.842 138.696 146.439 140.901 143.137C143.207 139.835 146.014 135.133 147.317 132.632C148.621 130.13 150.425 125.628 151.528 122.627C152.531 119.625 154.135 114.122 154.836 110.42C155.638 106.618 156.34 98.9145 156.34 93.1116C156.34 87.3086 155.638 79.4046 154.836 75.6026C154.034 71.8007 152.029 65.0973 150.325 60.7951C148.721 56.5929 145.112 49.5893 142.305 45.2871C139.598 41.085 134.284 34.5817 130.575 30.7797C126.765 27.0778 121.251 22.4755 118.244 20.4744C115.236 18.4734 109.822 15.3718 106.213 13.5709C102.604 11.77 95.6867 9.26871 90.674 8.0681C85.6613 6.86749 78.4431 5.56682 74.6334 5.16662C70.8238 4.86646 67.4152 4.36621 67.1144 4.06606C66.8136 3.86595 68.4177 3.1656 70.6233 2.66534Z" fill="#008301"/>
<path d="M47.5652 10.7697C50.2721 9.36896 55.9865 6.96773 60.0969 5.46696C64.2073 3.96619 68.1172 2.66553 68.6185 2.66553C69.1198 2.66553 68.9193 3.06573 68.1172 3.56599C67.3152 4.06624 66.8139 4.5665 67.1147 4.5665C67.4154 4.5665 70.8241 4.86665 74.6337 5.16681C78.4434 5.56701 85.6616 6.86768 90.6743 8.06829C95.687 9.2689 102.604 11.7702 106.214 13.5711C109.823 15.372 115.236 18.4736 118.244 20.4746C121.252 22.4757 126.766 27.078 130.575 30.7799C134.285 34.5818 139.598 41.0852 142.305 45.2873C145.112 49.5895 148.721 56.5931 150.325 60.7952C152.03 65.0974 154.035 71.8009 154.837 75.6028C155.639 79.4048 156.34 87.3088 156.34 93.1118C156.34 98.9147 155.639 106.619 154.837 110.321C154.135 114.123 152.531 119.625 151.528 122.627C150.425 125.628 148.621 130.131 147.318 132.632C146.014 135.133 143.207 139.836 140.901 143.137C138.696 146.439 134.084 151.842 130.776 155.244C127.467 158.645 121.352 163.548 117.242 166.249C113.131 168.951 107.818 172.052 105.512 173.153C103.206 174.253 101.502 175.354 101.702 175.654C101.903 175.954 100.399 176.454 98.3938 176.855C96.3888 177.255 91.4763 177.655 87.6667 177.655C83.857 177.655 75.937 176.554 70.1223 175.254C64.3076 173.953 56.187 171.352 52.0766 169.451C47.9662 167.55 42.352 164.548 39.5449 162.647C36.8381 160.746 31.4244 156.344 27.6147 152.742C23.9053 149.14 18.8927 143.438 16.4866 140.136C14.1807 136.834 10.7721 131.331 9.06779 127.83C7.36348 124.428 4.75689 117.724 3.25308 112.822C0.846992 105.018 0.646484 102.517 0.646484 89.1097C0.646484 75.7029 0.846992 73.2016 3.25308 65.2975C4.75689 60.4951 7.36348 53.7917 9.06779 50.3899C10.8724 46.8881 13.9802 41.5854 15.9853 38.5839C18.0906 35.5824 22.201 30.6798 25.2086 27.6783C28.116 24.6768 33.2289 20.2745 36.5373 17.7733C39.8457 15.372 44.7581 12.1704 47.5652 10.7697Z" fill="#00AF01"/>
<path d="M60.899 54.8921C61.6007 53.5914 63.6058 51.8905 65.4104 51.0901C67.1147 50.2897 69.3203 49.6894 70.1223 49.5894C70.9243 49.5894 75.4358 50.9901 88.6692 55.8926L94.6845 53.6915C97.9928 52.3908 102.203 50.89 103.908 50.1897C106.615 49.2892 107.818 49.3893 110.725 50.89C112.63 51.7905 114.936 53.5914 115.738 54.8921C116.54 56.0927 118.846 63.1963 120.75 70.6001C122.655 78.0039 124.259 84.2071 124.259 84.4072C124.259 84.5072 126.164 84.7073 128.57 84.9074C132.38 85.1075 132.781 85.4077 132.781 90.1101H44.5576V87.6088C44.5576 85.4077 45.0589 85.0075 52.5779 84.107L56.187 70.6001C58.0919 63.1963 60.2974 56.0927 60.899 54.8921Z" fill="white"/>
<path d="M104.409 93.6119C105.412 93.6119 106.414 93.2117 106.615 92.8115C106.815 92.3112 107.818 92.011 108.82 92.1111C109.923 92.2111 111.627 92.6113 112.73 93.0116C113.833 93.4118 116.239 94.5123 118.144 95.4128C120.049 96.3132 122.655 98.7145 123.959 100.615C125.262 102.516 126.565 105.918 126.966 108.119C127.267 110.32 127.066 113.722 126.465 115.623C125.863 117.524 123.858 120.726 122.054 122.627C119.848 125.028 117.141 126.629 114.033 127.429C110.625 128.23 108.118 128.33 105.211 127.629C103.006 127.129 99.7974 125.428 98.0931 123.827C96.2885 122.327 94.1832 119.825 93.3812 118.124C92.5791 116.424 91.7771 112.822 91.7771 110.12C91.6768 105.218 91.5766 105.118 85.1604 104.617V109.82C85.1604 113.422 84.4586 116.323 82.8545 119.025C81.6515 121.226 79.5462 123.827 78.1426 124.828C76.7391 125.828 73.8317 127.129 71.6261 127.629C69.22 128.13 66.0119 128.13 63.6058 127.629C61.4002 127.129 58.4929 125.828 57.0893 124.828C55.6858 123.827 53.5804 121.226 52.2772 119.025C50.4726 115.923 50.0716 113.922 50.2721 109.42C50.4726 105.618 51.2746 102.817 52.6782 100.916C53.781 99.4148 56.2873 97.1136 58.1921 95.813C60.0969 94.6124 63.2048 93.3117 65.1096 92.9115C67.0144 92.6113 70.3228 92.9115 72.4281 93.5118C74.4332 94.1121 77.3406 95.6129 78.9446 96.9135C81.1502 98.7145 82.8545 99.1147 88.7695 99.1147C94.9852 99.1147 96.1883 98.8145 99.1959 96.3132C101 94.8125 103.306 93.6119 104.409 93.6119Z" fill="white"/>
</svg>
